<svg id="Layer_2" data-name="Layer 2" xmlns="http://www.w3.org/2000/svg" viewBox="0 0 500 118.77"><defs><style>.cls-1,.cls-2{fill:#fff;}.cls-2{opacity:0.5;}</style></defs><title>mountain-top</title><path class="cls-1" d="M0,0A7.35,7.35,0,0,0,.44,1.4a13,13,0,0,0,1.25,2c1.45,2.12,1.48,2.21,1.8,2.39.55.32,1.19.45,1.33,1,.1.32-.06.68.11.75s.45-.23.6-.15-.1.5.11.72.87-.07,1.2.19.09.54.14.94c.08.74.9,1.23,1.46,1.58,3.16,2,4.78,3,5.91,4.38a22.57,22.57,0,0,1,1.51,2A4.47,4.47,0,0,0,17,18.62a6.8,6.8,0,0,0,.77.57c.36.18.67.26.74.49s0,.27.06.34.22,0,.36,0c.32.08.17.7.58.92.26.15.5,0,.66.14s-.14.78,0,.88.24-.12.57-.17.44.13.92.15.6-.15.93-.05.23.14.55.41a6.83,6.83,0,0,0,.71.51,5.93,5.93,0,0,0,2,.38,2.44,2.44,0,0,1,1.06.24c.23.14.18.2.49.46.51.41.77.37,1,.7s.11.45.28.6c.54.48,2.6-.42,3.35-.76,1.78-.78,2-1.17,2.91-1.22a7.5,7.5,0,0,1,2.33.51c2.19.58,2.07.41,2.85.68,2.84,1,3.9,3,5.26,2.64a1.91,1.91,0,0,1,1-.17c.56.13.66.61,1.15.62s.44-.27.87-.26.62.32.91.24.22-.45.49-.53.74.62,1.33.59.5-.49,1-.51.91.68,1.35.56c.16,0,.13-.13.45-.33a4.22,4.22,0,0,1,.68-.31,2.17,2.17,0,0,0,.83-.71c.83-.94,2.34-.34,3.51-1.36.44-.39.43-.66,1-.93a3.42,3.42,0,0,1,1.49-.26c.53,0,.71-.14,2.94-1.13,2.66-1.2,3.16-1.39,3.93-1.34s.72.25,1.44.24c1.42,0,1.68-.82,3-.85,1.08,0,1.45.55,2.22.29.5-.18.59-.5,1-1a6.44,6.44,0,0,1,2.93-1.49A14.82,14.82,0,0,1,82.62,18c2.2-.14,1.16-.24,7.76-1.32,1-.16,2.83-.45,3.31-1.47.11-.24.1-.42.31-.57.86-.59,3.24.94,3.49,1.1.67.44,2.13,1.39,2,2.28,0,.15-.11.42.07.6s.53.08.91.19c.72.21.5.95,1.34,1.59.61.47.94.25,1.39.73s.31.95.74,1.12.61,0,1.18-.19c.79-.27.78-.47,1.24-.53.66-.08.91.31,1.44.15s.59-.5.76-.45-.11.7.29,1.26a1.19,1.19,0,0,0,.91.53c.43,0,.63-.4.86-.32s.12.42.36.79a2,2,0,0,0,.87.63c1.46.76,1.44,1.33,2.17,1.35a2.4,2.4,0,0,0,1.43-.58c.84-.6.84-1.17,1.26-1.19s.49.33,1.47,1.36,1.36,1.21,1.62,1.21c.44,0,.65-.31,1.16-.23s.45.27.68.26c.49,0,.67-.91,1-1.41,1.17-1.67,5.86-1.27,8.31-.47,1.46.48,2.19.71,2.6,1.33.18.27.43.81,1,.89.21,0,.32,0,.75,0s.54.12.78.13a1.88,1.88,0,0,0,1.19-.44c.58-.4.89-.31,3-1,2.92-1,5.08-1.68,5.23-2.7,0-.18,0-.69.42-.89.19-.1.28,0,.58-.1.61-.16.6-.61,1.15-.72.3-.06.33.06.73,0a2,2,0,0,0,.82-.34c.39-.27.29-.38.73-.77s.32-.16.9-.59a1,1,0,0,1,.54-.27c.23,0,.31.13.5.09s.15-.18.39-.4.35-.16.47-.31,0-.43.08-.68.49-.27,1.75-.59c.8-.21.87-.26.92-.3.53-.43.14-1.07.62-1.37s.66.05,1.18-.2.28-.41.75-.74.84-.2,1.2-.58c.18-.19.15-.29.43-.61a5.56,5.56,0,0,1,.49-.44c.72-.62.71-.86,1.16-1.06a3.87,3.87,0,0,1,.74-.15,3.19,3.19,0,0,0,1.51-1.21c1.12-1.11,3.68-.78,3.83-.76,1.54.21,2.6,1.05,4.25,2.34l.87.7c.87.72,1.31,1.08,1.62,1.38a5,5,0,0,1,1.76,2.47c.12.68,0,1.36.35,1.49s.56-.14.71,0,0,.34,0,.72a1.53,1.53,0,0,0,.24.72c.45.65,1.31.44,1.65,1,.23.39,0,.74.24.9s.67-.16,1,0,.07.81.53,1.15.62.05.89.3.07.74.38.93.43,0,.76,0c.84,0,1.49.86,1.68,1.11.77,1,.2,1.52.89,2.15s1.65.56,1.69,1-.46.43-.44.74.84.51,1.53.87c1.7.88,2.25,3.07,2.54,4.23a4.61,4.61,0,0,0,.45,1.39c.42.75.78.79,1.26,1.6s.24.85.69,1.49,1.15,1.3,1.6,1.17c.25-.07.23-.36.73-.66a1.52,1.52,0,0,1,.52-.23c.74-.2,1.16.23,1.65,0,.28-.13.2-.31.55-.44a1.36,1.36,0,0,1,.88,0c.35.11.31.27.6.39a1.75,1.75,0,0,0,1.87-.5c.06-.11.09-.24.23-.29s.35.08.59.13.53-.06,1.27-.37c1.2-.49,1.35-.43,1.41-.39.24.16,0,.7.17.75s.44-.39.57-.34-.06.29.06.58.37.28.47.54-.12.37-.15.68c-.06.61.71,1.29,1.1,1.21.2,0,.16-.25.38-.32.41-.12,1.2.46,1.47,1.17.15.42,0,.54.2.82s.66.3,1.24.68c.75.48.8,1.08,1.13,1s.5-.87.8-.86.26.51.72.65a.79.79,0,0,0,.47,0c.35-.13.29-.5.51-.56.41-.12,1.11,1,1.37.87s-.06-.6.23-.79a.85.85,0,0,1,.63,0c1.37.4,1.86,2.54,3.59,3a1.78,1.78,0,0,0,1.56-.14c.4-.43-.18-1.36,0-1.42s.25.3.65.57c.66.45,1.11.11,1.71.44.85.46.4,1.36,1.37,1.89.3.17.63.23.75.52s-.08.55.12.71.39,0,.56.16,0,.55.18.66.26,0,.41,0,0,.67.34,1,1,.09,1.13.37-.13.28-.06.6a.66.66,0,0,0,.3.45c.26.14.48,0,.65.07s0,.53,0,1.2a1.63,1.63,0,0,0,.15.74c.29.55.84.47,1.73,1.1.7.5.8.87,1.22.85s.41-.22.95-.25c.15,0,.48,0,.61.13s0,.13.09.28.25.19.35.37,0,.2.05.44.16.2.25.42,0,.35.08.61a1.21,1.21,0,0,0,.32.45c.51.57.78.87,1.13.86s.39-.18.57-.11.15.36.33.41.35-.23.53-.2c.38.07.13,1.33.82,1.64.19.09.33,0,.53.19s.23.33.35.65a2.37,2.37,0,0,0,.65,1.07c.26.22.36.15.75.41a3,3,0,0,1,.78.76,14.43,14.43,0,0,0,1.39,1.4c1.59,1.45,4.38.39,5.4,1.79.18.25,0,.2.36.91a5.8,5.8,0,0,0,1.49,2.2c.45.37.82.53.93,1s-.07.37,0,.68.48.67,1.16,1.13.64.33.87.57c.38.4.29.65.68,1a3.08,3.08,0,0,0,.83.39,8.55,8.55,0,0,1,1.31.8c1.2.74,1.82.32,2.58.88,1.12.82.95,2.57,1.05,2.56s-.13-.74.23-.93a.94.94,0,0,1,1,.28c.31.37-.08.72,0,1.53.07.53.35,1.21.77,1.27s.41-.29.71-.27c.61.05.54,1.47,1.45,1.76.35.1.51,0,.92.12s.47.51.8.6.73-.42,1.4-.6c1.16-.3,2.73.72,3.46,1.79a5.07,5.07,0,0,1,.44.87,7.16,7.16,0,0,0,3.13,2.86c2.11,1.14,3.6.91,4.66,2.35a2.82,2.82,0,0,1,.27.42c1.21,2,1.15,3.5,1.86,3.59.27,0,.47-.16.63,0s-.14.83.11,1,.51-.13.61,0-.18.32-.08.51.47.07.61.25-.4.8-.18,1.07.45,0,.61.21-.14.51.07.79c.11.13.24.12.3.28s0,.21,0,.37a.89.89,0,0,0,.18.55c.28.39.9.12,1.26.47s0,.81.37,1.14.51.1.77.33.18.55.23.86c.09.64.65.67,1.63,1.69s.89,1.51,1.65,1.79c.32.12.7.17.87.46s0,.38,0,.73a1.73,1.73,0,0,0,.88,1.36c.56.3,1.05.11,1.25.41s-.15.43,0,.75.56.3,1.18.74a4.58,4.58,0,0,1,.6.52,7.09,7.09,0,0,0,1.91,1.08c1.13.55.86.94,2.13,1.86a9.49,9.49,0,0,0,3.33,1.51c1.5.38,1.43,0,2.89.32a14.27,14.27,0,0,1,4.47,2,4.45,4.45,0,0,0,1.37.68,2.89,2.89,0,0,0,1.92.05c.4-.18.42-.42,1.15-.83l.58-.28,1.24-.59a8.69,8.69,0,0,0,2.62-2.17c.64-.69.43-.59.8-.94,1.47-1.37,3.07-1.29,3.54-2.41.09-.23,0-.25.2-.74a6.44,6.44,0,0,1,.7-1.47,10.08,10.08,0,0,1,1.13-1.3c.92-1,.93-1.07,1.4-1.56s.79-.81,1.27-1.22a13.11,13.11,0,0,1,2.43-1.53c.83-.48,1.53-1.39,2.91-3.22,1-1.28,3.08-4.23,4.17-4.34a1.19,1.19,0,0,0,.56-.19c.29-.22.26-.52.33-.81.14-.57.59-1,1.49-1.74.59-.5.79-.54.89-.85.16-.46-.21-.68-.35-1.28-.24-1,.47-1.21.93-3.15a3.85,3.85,0,0,1,.38-1.13c.16-.3.28-.42.46-.81s.16-.49.29-.78a5.36,5.36,0,0,1,1-1.19,6.93,6.93,0,0,0,.93-1.09,2.62,2.62,0,0,0,.33-.67c.28-.88-.17-1.34.24-1.75.15-.14.34-.21.41-.44s0-.27,0-.44.33-.28.56-.43a1.74,1.74,0,0,0,.63-.84c.63-1.19,3.84-4.08,4.69-3.66.14.06.23.22.44.22s.43-.31.71-.29.32.3.54.29.35-.36.64-.82c.46-.75.66-.6.86-1.07.31-.71-.05-1.26.37-1.5a2.09,2.09,0,0,0,.44-.23c.24-.19.25-.37.37-.37s.18.18.42.48.35.44.56.52c.47.18.94-.26,1.13-.11s-.34.7-.29,1.51c0,.5.31,1,.58,1s.37-.6.74-.64c.53-.05.82,1.24,1.51,1.27.39,0,.39-.42,1.48-1.31.71-.57,1.12-.73,1.18-1.16,0-.21,0-.54.19-.63s.2,0,.29,0-.07-.42.07-.73.48-.21.91-.67c.16-.18.19-.27.37-.36s.38,0,.64-.11.47-.33.7-.65.21-.47.47-.71.21-.12.38-.27c.4-.35.28-.6.64-1s.41-.25.63-.56.1-.49.3-.84.69-.46,1-.91.1-.63.18-1.07c.12-.76.68-.75,1.82-2.12a6.43,6.43,0,0,0,1.35-2.11,1.63,1.63,0,0,1,.23-.52c.32-.47.75-.52,1-1a1.39,1.39,0,0,0,.15-.53c.25-1,2.12-1.7,3.67-1.91a6.25,6.25,0,0,0,2.35-.4,9.5,9.5,0,0,0,1-.59c1.07-.73,1-.79,1.21-.85,1-.25,1.84,1.24,3,1,.42-.09.73-.38,1.21-.26.28.08.43.25.65.19s.26-.23.44-.45c.32-.42.57-.35.89-.66.56-.56.12-1.16.76-1.8a.6.6,0,0,1,.42-.23c.33,0,.43.41.78.45s.65-.47.92-.4.12.26.3.6.63.84,1,.8.53-.68.76-.65.16.56.47.64.24-.09.43-.08c.5,0,.71.91,1,.89s.16-.28.41-.37.59.28,1,.31c.69,0,.84-.84,2-1.22.6-.19.67,0,1.39-.22s.82-.57,1.38-.61.87.3,1.4.17a1.58,1.58,0,0,0,.68-.48,18.8,18.8,0,0,1,2.27-1.55c.88-.55,1-.61,1.26-.6.6,0,.85.45,1.39.39.36,0,.58-.28.9-.63.79-.88.73-1.64,1.31-1.77.24,0,.45,0,.67-.12s.1-.09.29-.41.33-.54.48-.62.23,0,.35-.1c.33-.18.11-.7.2-1.2a2.94,2.94,0,0,1,2.36-1.93A2,2,0,0,0,415,43a1.86,1.86,0,0,0,.83-.7c.93-1.31,4.47-1,5.74-2.39a1.12,1.12,0,0,1,.76-.49c.48,0,.78.46,1.1.35s.14-.29.42-.44.46,0,.68-.1c.38-.2.15-.85.44-.94s.39.24.63.19.21-.74.57-1.34a3.91,3.91,0,0,1,3.33-1.5c.24,0,.75.11,1-.11s.06-.38.27-.53.36,0,.6-.12.26-.47.51-.81c.4-.53,1-.25,1.75-.82.56-.42.58-.83.94-.84s.36.31.93.53a1.61,1.61,0,0,0,1.2,0c.22-.14.14-.3.38-.51s.91-.38,1.05-.23-.49.73-.26,1,.41.16.6.13.45-.16.86-.78a3.79,3.79,0,0,0,.52-.92c.55-1.46,3.71-3.45,4.63-4,1.49-.94,1-.39,2.83-1.47.56-.33.95-.58,1.3-.46.64.22.41,1.41,1.12,1.62.33.1.45-.15.87-.06.61.13.56.71,1.35,1.09.1.05.7.33,1,.13a.62.62,0,0,0,.25-.46c.23-.75,1.79-.65,3.49-1.48a11.13,11.13,0,0,1,2.54-1.27c.42-.08.93-.12.93-.12a3.7,3.7,0,0,1,.89,0c.64.11.71.46,1.06.49.76.07.94-1.48,2.18-2s2.12.62,3.11.15c1.28-.6.93-3,1.91-3.09.32,0,.63.17.93,0s.21-.31.36-.64c.28-.64.57-.61.76-1.06.3-.74-.33-1.19,0-1.51s1,.16,1.86-.19c.57-.22.57-.53,1.11-.6s.65.12,1.11,0,.32-.2.67-.38c.75-.38,1.17-.05,1.6-.38s.18-.75.67-1.05c.28-.19.45-.09.8-.19,1.09-.34.79-1.82,2.08-2.53.4-.22.5-.12.89-.38.58-.38.6-.77,1.16-1.24a3.45,3.45,0,0,1,1-.57c1.94-.89,2.42-4.63,5.28-6,1.47-.7,1.87,0,3.51-.83s2-1.85,3.51-1.92a8.42,8.42,0,0,0,1.42,0A3.49,3.49,0,0,0,500,0Z" transform="translate(0)"/><path class="cls-2" d="M9.25,12.17a1.28,1.28,0,0,1,.48.09c.25.15,0,.36.28.46s.31,0,.55,0a2,2,0,0,1,1.23.54c.57.5.15.75.65,1.06s1.21.27,1.24.48-.34.21-.33.36.62.25,1.12.43a3.09,3.09,0,0,1,1.86,2.08,1.71,1.71,0,0,0,.33.68c.3.36.56.38.92.78s.17.42.5.73a1.79,1.79,0,0,0,1.17.58c.19,0,.17-.18.53-.33a1.64,1.64,0,0,1,.38-.11c.54-.1.85.11,1.21,0,.2-.07.15-.15.4-.22a1.39,1.39,0,0,1,.64,0c.26,0,.23.13.44.19a1.75,1.75,0,0,0,1.37-.24c.05-.06.07-.12.17-.15s.25,0,.43.07a2.32,2.32,0,0,0,.92-.18c.88-.25,1-.22,1-.2s0,.35.12.37.32-.19.42-.16-.05.14,0,.28.27.14.34.26-.08.19-.1.34c-.05.3.51.63.8.59s.12-.12.27-.15a1.29,1.29,0,0,1,1.08.57c.11.21,0,.26.14.4s.48.15.91.33.59.53.83.52.36-.43.58-.43.19.25.53.32a.74.74,0,0,0,.34,0c.25-.06.21-.24.37-.27s.81.48,1,.43,0-.3.17-.39a.83.83,0,0,1,.47,0c1,.2,1.35,1.24,2.61,1.48a1.86,1.86,0,0,0,1.15-.07c.29-.21-.14-.66,0-.69s.18.15.47.28c.48.22.81,0,1.25.21.62.23.29.67,1,.93.23.08.46.12.55.26s-.06.27.08.35.3,0,.42.08,0,.26.13.32.19,0,.3,0,0,.33.25.48.71.05.82.19-.09.13,0,.29a.34.34,0,0,0,.22.22c.19.07.35,0,.47,0s0,.26,0,.59a.61.61,0,0,0,.11.36c.21.27.61.23,1.26.54s.59.42.89.42.3-.11.69-.13a1,1,0,0,1,.45.06c.06,0,0,.07.06.14s.19.09.26.18,0,.1,0,.22.11.1.18.21,0,.17.06.29,0,.09.23.23c.37.28.57.42.83.42s.28-.09.41-.06.11.18.25.21.25-.12.39-.1.09.65.59.8a2.46,2.46,0,0,1,.39.09c.16.08.17.17.26.32a1.16,1.16,0,0,0,.47.53c.19.11.27.07.55.2a2.06,2.06,0,0,1,.57.37,11,11,0,0,0,1,.69c1.17.71,3.21.19,4,.88.13.12,0,.1.27.45A3,3,0,0,0,60,35.63c.33.19.6.26.68.48s-.05.18,0,.33.35.33.85.56a5,5,0,0,1,.63.27c.28.2.22.32.5.49a3.77,3.77,0,0,0,.61.19,6.28,6.28,0,0,1,1,.39c.88.36,1.33.16,1.89.43.82.4.69,1.26.77,1.26s-.1-.37.17-.46a.91.91,0,0,1,.72.14c.22.18-.06.35,0,.75s.25.6.56.62.3-.14.52-.13c.45,0,.39.72,1.06.86a6.12,6.12,0,0,1,.67.07c.35.1.35.24.59.29s.53-.21,1-.29a3.39,3.39,0,0,1,2.53.87,3.19,3.19,0,0,1,.32.43,5.07,5.07,0,0,0,2.29,1.4c1.54.56,2.62.45,3.4,1.16a1.85,1.85,0,0,1,.2.2c.88,1,.84,1.72,1.35,1.77.2,0,.35-.09.47,0s-.11.41.08.48.37-.06.44,0-.13.16,0,.25.34,0,.44.13-.29.39-.13.52.32,0,.44.11-.1.25.06.38.17.07.22.14,0,.11,0,.18a.36.36,0,0,0,.12.27c.21.19.66.06.93.23s0,.4.27.57.37,0,.56.16.13.27.17.42c.07.31.47.33,1.19.83s.65.74,1.21.88c.23.05.51.08.63.22s0,.19,0,.36a.9.9,0,0,0,.64.67c.41.14.77.05.92.2s-.11.21,0,.37.4.14.86.36c.21.1.27.16.44.25a5.61,5.61,0,0,0,1.39.53c.82.28.63.46,1.56.92a8.88,8.88,0,0,0,2.43.74c1.1.18,1,0,2.11.16A13.44,13.44,0,0,1,103,59a3.62,3.62,0,0,0,1,.33,3,3,0,0,0,1.4,0c.3-.09.31-.21.84-.4l.42-.14.91-.29a6.56,6.56,0,0,0,1.92-1.07c.46-.33.31-.29.58-.46,1.07-.67,2.24-.63,2.58-1.18.07-.11,0-.12.15-.37a3.21,3.21,0,0,1,.51-.72,6.82,6.82,0,0,1,.83-.64c.67-.5.68-.52,1-.76s.58-.4.93-.6a11.39,11.39,0,0,1,1.77-.75A7.62,7.62,0,0,0,120,50.35c.7-.63,2.25-2.08,3.05-2.13a1,1,0,0,0,.41-.09c.21-.11.19-.26.24-.4s.43-.47,1.09-.85c.43-.25.57-.27.65-.42s-.15-.33-.26-.63c-.17-.47.35-.59.68-1.55a1.5,1.5,0,0,1,.28-.55c.11-.15.2-.21.34-.4s.11-.24.21-.38.11-.15.7-.58a5.32,5.32,0,0,0,.68-.54,1.33,1.33,0,0,0,.24-.33c.21-.43-.13-.66.17-.86.11-.07.25-.1.3-.21s0-.14,0-.22.24-.14.4-.21a1,1,0,0,0,.46-.41c.47-.59,2.81-2,3.43-1.8.1,0,.17.11.33.11s.3-.15.51-.15.24.15.39.15.26-.18.47-.41.49-.29.63-.52,0-.62.27-.74a1,1,0,0,0,.32-.11c.18-.09.18-.18.27-.18s.14.09.31.24a1.08,1.08,0,0,0,.41.25c.34.09.69-.12.83,0s-.26.34-.21.74c0,.24.22.5.42.51s.27-.3.53-.32.61.61,1.11.62c.29,0,.29-.2,1.09-.64.51-.28.81-.36.86-.57s0-.27.14-.31.14,0,.2,0-.05-.2.06-.36.34-.1.66-.33c.12-.08.14-.13.27-.17a3.55,3.55,0,0,1,.47-.06,1,1,0,0,0,.51-.32c.17-.16.16-.23.35-.34s.15-.06.27-.14c.3-.17.21-.29.47-.5s.3-.12.46-.27.08-.24.22-.41.5-.23.72-.45.08-.31.13-.53c.09-.37.5-.36,1.33-1a3.45,3.45,0,0,0,1-1,.76.76,0,0,1,.16-.26c.24-.23.56-.25.75-.48a.56.56,0,0,0,.11-.26c.18-.47,1.55-.83,2.68-.94a6.28,6.28,0,0,0,1.72-.19L155,28c.79-.36.71-.39.89-.42.76-.12,1.34.61,2.19.49A2.32,2.32,0,0,1,159,28c.21,0,.32.12.48.09s.19-.11.32-.22.42-.17.65-.32c.41-.28.09-.57.56-.89a.55.55,0,0,1,.3-.11c.25,0,.32.21.57.22s.48-.23.67-.19.09.13.22.29a1.09,1.09,0,0,0,.73.4c.3,0,.39-.34.56-.32s.12.27.34.31.18-.05.32,0c.36,0,.51.45.75.43s.12-.13.31-.18.43.14.75.16c.51,0,.62-.42,1.44-.6.43-.1.48,0,1-.11s.61-.28,1-.3.64.15,1,.08a1.09,1.09,0,0,0,.5-.23,14.68,14.68,0,0,1,1.66-.76,2.47,2.47,0,0,1,.92-.3c.44,0,.62.23,1,.2a1.14,1.14,0,0,0,.66-.32c.58-.43.53-.8,1-.86a2,2,0,0,0,.49-.06c.06,0,.07,0,.21-.2s.24-.27.35-.31.17,0,.26,0c.24-.09.08-.34.14-.59.12-.45,1-.88,1.73-.94a2.26,2.26,0,0,0,.51-.07,1.47,1.47,0,0,0,.61-.35c.68-.64,3.26-.46,4.19-1.17a.89.89,0,0,1,.56-.24c.34,0,.57.22.8.17s.1-.15.31-.22.33,0,.49,0,.11-.42.32-.47.29.12.46.1.16-.37.42-.66a3.53,3.53,0,0,1,2.43-.74,1.46,1.46,0,0,0,.72,0c.12-.09,0-.19.19-.26s.27,0,.44-.06.2-.23.38-.4.73-.12,1.28-.4.42-.41.68-.41.26.15.68.25a1.72,1.72,0,0,0,.88,0c.16-.07.1-.15.28-.25a1.09,1.09,0,0,1,.77-.12c.13.1-.37.36-.2.5a.71.71,0,0,0,.44.07,1,1,0,0,0,.63-.39,1.69,1.69,0,0,0,.38-.45c.4-.71,2.71-1.69,3.38-2,1.09-.46.7-.19,2.07-.72a1.77,1.77,0,0,1,1-.22c.47.11.3.69.82.79.24,0,.33-.07.63,0,.45.07.41.35,1,.54a1.43,1.43,0,0,0,.76.06c.15-.05.16-.16.19-.22.16-.37,1.3-.32,2.54-.73a10,10,0,0,1,1.86-.63l.68-.05a3.46,3.46,0,0,1,.65,0c.47.05.52.22.78.24.54,0,.68-.73,1.59-1s1.55.3,2.27.07c.93-.3.68-1.45,1.39-1.52.24,0,.46.09.69,0s.15-.15.26-.31.41-.3.55-.52-.24-.59,0-.74.71.08,1.36-.09c.42-.12.42-.27.81-.3a7.3,7.3,0,0,0,.81,0,2.34,2.34,0,0,0,.49-.19c.55-.18.85,0,1.17-.18s.13-.37.49-.52a2.52,2.52,0,0,1,.58-.09c.8-.17.58-.9,1.53-1.24.29-.11.36-.06.65-.19s.43-.38.84-.61A3.33,3.33,0,0,1,231,6c1.43-.44,1.77-2.27,3.87-2.94,1.07-.35,1.36,0,2.56-.41s1.49-.91,2.57-.94a8.85,8.85,0,0,0,1,0,2.85,2.85,0,0,0,1.43-.62H9.25Z" transform="translate(0)"/><path class="cls-2" d="M257.73.85a7.1,7.1,0,0,0,1.13,0c1.16.05,1.59.7,2.76,1.18s1.61.08,2.77.5c2.26.84,2.63,3.12,4.16,3.66a3.12,3.12,0,0,1,.77.35c.44.29.46.52.92.76.3.15.38.09.7.23,1,.43.78,1.33,1.64,1.54.27.06.4,0,.63.11.38.19.19.45.53.65s.66,0,1.26.23c.27.1.27.17.52.23a8.61,8.61,0,0,0,.88,0c.42,0,.42.23.87.36.7.22,1.21-.08,1.47.12s-.24.47,0,.92c.15.27.38.26.6.64.11.21.11.32.28.4s.48,0,.73,0c.78.08.51,1.51,1.51,1.88.78.29,1.49-.38,2.45-.09s1.12,1.24,1.72,1.2c.27,0,.33-.24.84-.3a3.19,3.19,0,0,1,.7,0s.39,0,.73.07a9.92,9.92,0,0,1,2,.77c1.34.51,2.57.45,2.75.91,0,.08,0,.21.19.27a1.31,1.31,0,0,0,.83-.07c.62-.23.58-.59,1.07-.67.32-.05.41.1.68,0,.55-.13.38-.85.88-1,.27-.07.58.08,1,.28,1.48.66,1.06.32,2.23.9.73.35,3.22,1.57,3.65,2.46A2.64,2.64,0,0,0,304,20c.33.37.52.45.68.47a.7.7,0,0,0,.48-.08c.18-.17-.36-.5-.21-.62a1,1,0,0,1,.82.14c.2.13.13.23.31.31a1.67,1.67,0,0,0,.94,0c.45-.14.49-.33.74-.32s.29.25.73.51c.6.34,1.07.17,1.38.5s.14.4.41.49.32,0,.47.08.08.21.21.31a1.31,1.31,0,0,0,.78.07,3.53,3.53,0,0,1,2.62.92c.28.37.18.78.45.82s.34-.17.5-.12,0,.45.34.57.32,0,.54.07.16.22.32.26.5-.23.87-.21a1,1,0,0,1,.61.3c1,.88,3.78.66,4.51,1.45a1.48,1.48,0,0,0,.66.43,1.87,1.87,0,0,0,.55.09c.78.08,1.74.62,1.86,1.18.08.3-.1.62.16.73.09,0,.15,0,.27.06s.17.11.38.38.17.22.23.25a1.58,1.58,0,0,0,.53.07c.46.08.41.54,1,1.08a1.33,1.33,0,0,0,.71.39c.42,0,.62-.24,1.09-.24.17,0,.31,0,1,.37a15,15,0,0,1,1.79.94,1.24,1.24,0,0,0,.54.29c.41.08.61-.13,1.1-.1s.46.21,1.09.37.62,0,1.09.14c.88.22,1,.77,1.55.74.35,0,.54-.26.81-.19s.19.21.33.22.42-.53.81-.54c.16,0,.21.08.35.05s.2-.37.36-.39.29.37.61.4a1.06,1.06,0,0,0,.78-.49c.14-.21.11-.34.24-.36s.41.26.72.24.36-.28.62-.28a.5.5,0,0,1,.33.14c.5.39.16.76.6,1.1.25.19.45.15.7.4s.18.25.34.28.3-.07.52-.12a2.37,2.37,0,0,1,1,.16c.91.15,1.54-.76,2.36-.6.19,0,.11.07.95.51.33.17.55.29.75.37a6.7,6.7,0,0,0,1.85.24c1.22.12,2.7.58,2.89,1.16a.89.89,0,0,0,.12.33c.21.27.55.3.81.59a.91.91,0,0,1,.17.32,4.28,4.28,0,0,0,1.07,1.29c.9.84,1.34.82,1.44,1.29.06.27-.07.42.14.65s.56.25.78.56,0,.3.23.51.28.14.5.34.19.41.51.62c.13.09.16.07.29.17s.19.23.38.43a1,1,0,0,0,.55.4,2.73,2.73,0,0,1,.5.06,1,1,0,0,1,.29.22c.34.28.61.22.72.41s-.08.39.06.45.13,0,.22,0,.13.26.15.38.37.36.93.71c.86.55.86.81,1.17.8.54,0,.77-.81,1.19-.77s.35.39.58.39.43-.33.45-.64c.05-.49-.39-.82-.22-.92s.52.18.89.07a1.15,1.15,0,0,0,.44-.31c.19-.18.24-.3.33-.3s.11.11.29.23a2.52,2.52,0,0,0,.35.14c.33.14,0,.48.29.91s.31.2.68.65c.23.28.32.51.51.51s.21-.18.42-.18.31.18.56.18.24-.1.34-.14c.68-.26,3.2,1.51,3.7,2.24a1.19,1.19,0,0,0,.5.51c.18.08.37.12.44.26s0,.15,0,.27.2.18.32.27c.32.24,0,.52.18,1.06a1.46,1.46,0,0,0,.27.41,4.36,4.36,0,0,0,.73.67c.64.53.71.64.75.72s.08.23.23.47.24.32.37.5a2.09,2.09,0,0,1,.3.69c.35,1.18.92,1.34.73,1.92-.11.37-.4.5-.28.78s.24.21.7.52c.71.47,1.07.71,1.18,1.06.05.18,0,.36.26.49a1.16,1.16,0,0,0,.44.12c.86.07,2.53,1.87,3.29,2.64a8.39,8.39,0,0,0,2.29,2,11.09,11.09,0,0,1,1.92.93c.38.25.7.51,1,.74s.37.33,1.1,1a7,7,0,0,1,.89.8,3.47,3.47,0,0,1,.55.89c.13.3.09.32.16.45.37.69,1.63.64,2.78,1.48.3.21.13.15.63.57a6.89,6.89,0,0,0,2.07,1.32l1,.36.46.17c.57.25.58.39.91.51a2.88,2.88,0,0,0,1.5,0,4,4,0,0,0,1.09-.41,12.63,12.63,0,0,1,3.52-1.18c1.15-.21,1.09,0,2.27-.2a9.08,9.08,0,0,0,2.63-.92c1-.57.79-.8,1.68-1.14a6,6,0,0,0,1.51-.66,3.66,3.66,0,0,1,.46-.31c.5-.27.82-.25.94-.45s-.13-.31,0-.46.54-.07,1-.25a1.08,1.08,0,0,0,.7-.83c0-.21-.11-.3,0-.45s.43-.2.68-.27c.6-.17.49-.45,1.3-1.1s1.21-.64,1.29-1c0-.18,0-.37.18-.52s.4-.07.6-.2,0-.49.29-.7.78,0,1-.28a.51.51,0,0,0,.14-.34c0-.1-.05-.15,0-.23s.15-.09.23-.17-.08-.34.06-.48.38,0,.49-.13-.33-.48-.15-.65.4,0,.48-.15-.14-.25-.06-.31.34.07.48,0-.12-.49.09-.61.28.06.49,0c.56-.06.52-1,1.47-2.19a1.66,1.66,0,0,1,.21-.26c.84-.87,2-.74,3.67-1.43a5.49,5.49,0,0,0,2.47-1.74,3.77,3.77,0,0,1,.34-.54,3.38,3.38,0,0,1,2.73-1.08c.53.1.74.43,1.11.36s.26-.24.63-.36.45,0,.72-.08c.72-.17.66-1,1.14-1.07.24,0,.32.19.57.16s.55-.45.6-.77c.08-.5-.22-.71,0-.93a.89.89,0,0,1,.77-.18c.29.12.13.57.19.57s-.06-1.06.82-1.56c.61-.34,1.09-.08,2-.54a8,8,0,0,1,1-.48,2.82,2.82,0,0,0,.65-.24c.31-.2.24-.36.54-.6s.22-.1.68-.35.83-.44.91-.69-.06-.22,0-.41.39-.36.74-.59a3.67,3.67,0,0,0,1.17-1.34c.27-.43.15-.4.29-.55.8-.85,3-.21,4.26-1.09a11.9,11.9,0,0,0,1.09-.86,2.11,2.11,0,0,1,.61-.46c.31-.16.39-.12.6-.25a1.46,1.46,0,0,0,.51-.65c.09-.2.1-.31.27-.4a1.74,1.74,0,0,1,.42-.11c.54-.19.35-1,.65-1,.14,0,.26.15.42.12s.1-.2.26-.25.23.06.44.07.5-.18.9-.53a1,1,0,0,0,.25-.27c.06-.16,0-.22.06-.38s.15-.12.2-.25,0-.17,0-.27.2-.1.27-.23,0-.12.07-.17.36-.08.49-.08c.42,0,.5.15.74.16s.41-.21,1-.52,1.14-.34,1.37-.67a1,1,0,0,0,.12-.45c0-.41-.17-.64,0-.73s.31,0,.51-.05a.4.4,0,0,0,.24-.27c.05-.2-.11-.26-.05-.37s.63,0,.89-.23,0-.53.27-.59.22,0,.32,0,0-.29.14-.41.32,0,.45-.09,0-.26.09-.44.35-.21.59-.31c.77-.33.41-.88,1.08-1.16.48-.2.83,0,1.35-.27.31-.16.44-.37.51-.34s-.32.6,0,.86a1.79,1.79,0,0,0,1.24.09c1.35-.3,1.74-1.6,2.82-1.85a.84.84,0,0,1,.5,0c.23.12,0,.44.18.48s.76-.6,1.08-.53.13.27.41.34a.69.69,0,0,0,.36,0c.37-.08.38-.39.57-.39s.32.5.63.52.3-.34.89-.64.76-.17,1-.41,0-.24.16-.5a1.32,1.32,0,0,1,1.15-.71c.17,0,.14.17.3.19.31,0,.91-.36.87-.74,0-.18-.19-.26-.12-.41s.28-.16.37-.33,0-.33.05-.35.33.24.45.21-.06-.37.13-.46.17-.06,1.11.24c.58.18.75.27,1,.22s.32-.12.47-.08.13.11.18.18a1.66,1.66,0,0,0,1.47.3c.23-.07.2-.17.48-.24a1.37,1.37,0,0,1,.69,0c.27.08.21.19.44.27s.71-.12,1.3,0a1.7,1.7,0,0,1,.4.14c.4.18.38.36.58.4.36.08.94-.35,1.26-.71s.2-.47.54-.91.67-.52,1-1A1.7,1.7,0,0,0,500,21V.09H256.19A2.89,2.89,0,0,0,257.73.85Z" transform="translate(0)"/></svg>