<svg id="Layer_1" data-name="Layer 1" xmlns="http://www.w3.org/2000/svg" viewBox="0 0 500.37 33.72"><defs><style>.cls-1{fill:#fff;}.cls-2{opacity:0.5;}</style></defs><title>sharp-paper-top</title><path class="cls-1" d="M.37.28V24l1.71-2.4a6.48,6.48,0,0,0,4.81-1.39A3.14,3.14,0,0,1,8.8,20c1.84.44,3.62,1,5.42,1.45.37.1.75.16,1.11.23a1.7,1.7,0,0,1,.06.5c.08.6.15,1.21.22,1.81a9.1,9.1,0,0,0,1.94-.86c1.61-1.27,3.41-.68,5.21-.36.44.08,1,.37,1.29.26,3.13-1.17,6.52-.34,9.76-.62,1.51-.12,3.32.5,4.46-.76.12-.12.91,0,1.39,0,4.78-.06,9.55-.06,14.33-.06,2.33-.06,4.66-1.5,5.19-3.1a1.54,1.54,0,0,1,.92-1c1.56-.42,3.2-.7,4.81-1,.2,0,.41,0,.61-.09,1-.24,2.19-.86,2.85-.65a16.43,16.43,0,0,1,3.37,1.89c.87.5,1.82.94,2.76,1.38.21.1.67.07.73.18,1.08,1.82,3.42,1.48,5.56,1.48a11.53,11.53,0,0,1,6.47,1.72c.35.23.4.67.76.89a22.16,22.16,0,0,0,2.35,1l.19-1.84h2l.57,2c1.51-.19,2.71-.36,3.93-.49,2.2-.24,4.63.54,6.63-.71a3.22,3.22,0,0,1,1.63,0,35.19,35.19,0,0,1,4.52.93,7.16,7.16,0,0,0,5.67,0,3.58,3.58,0,0,1,2,0,24.1,24.1,0,0,1,2.94,1.08l.12,1.14c1.42,0,2.9.8,4-.52.17-.22,1.28-.12,2.11-.12l-1.5,3,.79.32c.69-.46,1.4-1,2.07-1.48,1.42-1,2.65-2.26,5.3-2a6.88,6.88,0,0,0,2.39-.59c2.48-.79,4.29,0,5,2l4.72-.63.12-1.53c1.89-.3,4.1.63,5.61-1.14l3.8,3.85c.63-.54,1.1-.91,1.53-1.31a6.73,6.73,0,0,1,5.78-1.42,1.12,1.12,0,0,1,.61.26c1.16,1.88,3.69,1.23,5.74,1.38a2.72,2.72,0,0,0,1.15-.36l8.41.7-2.49.81c2.16.79,4.64.77,5.74-.41.77-.82,1.49-.72,2.46-.72h2.92c1.67,0,2.42-.72,2.6-2.51,1.86.72,3.31-2,5.22-.2,2.09-1,4.11-2,6.21-3a2.76,2.76,0,0,1,1.61,0c1.19.47,2.26,1.07,3.4,1.59a4.74,4.74,0,0,0,1.19,0l-1.51-3c3.71-.59,4.51-.23,5,2.24l3.25-.13-1.08-1.34,2.18-.45-1.85-2a7.71,7.71,0,0,1,1.42-.2c2,.11,3.67-.12,4.76-1.4a2.68,2.68,0,0,1,1.26,0c.41.09.78.46,1.11.46,2.72-.27,4.4.83,6.14,1.95a16.58,16.58,0,0,0,2.65.91l-.26-2.85,4.9,1.46c.67-1.17,2-1.63,4.18-1.51s4.3-.07,6.44,0A15.62,15.62,0,0,1,248,17c1.1.2,2.24.3,3.85.51L251,14.72c.34-.78,1.77-.78,3.34-.78a3.26,3.26,0,0,0,2.64-.65c.32-.26,1.89,0,3.54,0-1.24.92-2.12,1.55-2.94,2.21a6.34,6.34,0,0,0-.84.95c.78,0,2,.14,2.28-.13,2.12-1.9,4.74-2.5,8.29-2.41,1.74,0,3.56-1.15,5.3-1.83a13.57,13.57,0,0,0,1.72-1V9.79c2.39-.78,4.53-1.43,6.53-2.14,1.39-.49,5.38-.19,6.38.53.67-.33,1.13-1.37,2.21-.13.39.45,2.25.11,2.59,1.12a4.82,4.82,0,0,0,2-.2c1.16-1.06,2.5-.54,3.82-.4a11.51,11.51,0,0,1,1.66.28l7,.51.17,1.52c.49-.13.88-.19,1.23-.3a7,7,0,0,1,1.6-.53c2.75-.13,2.75-.1,3.89-1.73,1.21,1,2.37,1,4,.21l.18-.07a2.06,2.06,0,0,1,2.65,1.26c.38.88.92,1.24,2.72,1l-.69-3.1,2.62-.1c1,1.85,1.68,1.89,4.2,1A47.93,47.93,0,0,1,335,7.26L335.55,9a15.28,15.28,0,0,0,1.91-.1A9,9,0,0,0,339,8.42c-.23.58,1.45.9.34,1.72-.6.43-.51,1.29-.83,2.24l2.4,1.27.14-.2,2.16,2.38a5.4,5.4,0,0,1,5.33-.29c1.53.68,2.66-.64,4-1,1.62-.45,3.1-1.13,4.4-1.6,2.75,2.22,5.69.68,8.2,1.2l.19-.33-1.32-1,.13-.4c2.65.47,5.41-.78,8,.65a3.21,3.21,0,0,0,1.71.08c.85-1.37,2.48-.47,3.78-.74l.57,1.49c3-1.11,4.09-.78,4.75,1.32.1.32.63.6.85.79l-1,1.93.66.45a21.13,21.13,0,0,0,4.36-1.54A4.94,4.94,0,0,1,394,17c.21.15.22.43.32.65l.7-.27c.15-.46.11-1.07.48-1.47a2,2,0,0,1,1.63-.41,45.39,45.39,0,0,1,6.27.37,38.48,38.48,0,0,1,5.78,2c-.25.27-.68.72-1.06,1.19-.15.17-.34.42-.26.59a1.14,1.14,0,0,0,.77.3,2.31,2.31,0,0,0,1.19-.14c1.81-1.46,2.84-.45,4,.57l-2.3.56c1.3,1.69,3.86,1.79,6.45,2.59l-.76,2.7h-.55l1.71,1c1.44-1.08,4.17-1,6.05-.17a13.3,13.3,0,0,0,3.38.46,12.69,12.69,0,0,1,.12,1.38c2.7.57,5.69-.71,8.28.85l.46-1.4c1.07.19,2.88.66,3.07.47a3,3,0,0,1,2.79-.63,28.25,28.25,0,0,1,5,1c1.32.45,1.21.6,2.1-.23a4.22,4.22,0,0,0,4.92.12c1,.47,2,.95,3,1.38a1.82,1.82,0,0,0,1,.14c1.63-1.28,3.39-.13,5.06-.19a40.11,40.11,0,0,0,5.12-.69c2.21-.37,3.51,1,5.39,1.2a9.85,9.85,0,0,0,1.95.27,28.33,28.33,0,0,1,3.79-.53c2.12.07,4.36-.41,6.36.61a2.2,2.2,0,0,0,1.39,0c3-1.4,6.47-.27,9.67-.61.69-.07,1.69,1.31,2.69,2.12a5,5,0,0,0,.39-1.18V.28H.37Z" transform="translate(0 -0.28)"/><g class="cls-2"><path class="cls-1" d="M0,1.39V25.13l1.71-2.39a6.54,6.54,0,0,0,4.81-1.4,3.21,3.21,0,0,1,1.91-.21c1.84.44,3.62,1,5.42,1.45.37.1.75.17,1.11.24a1.61,1.61,0,0,1,.06.49c.08.6.15,1.21.22,1.81a9.1,9.1,0,0,0,1.94-.86c1.61-1.27,3.41-.68,5.21-.36.44.08,1,.37,1.29.27,3.13-1.18,6.52-.35,9.76-.62,1.51-.12,3.32.49,4.46-.76.12-.13.91,0,1.39,0,4.78-.06,9.55-.06,14.33-.06,2.33-.07,4.66-1.51,5.19-3.11a1.54,1.54,0,0,1,.92-1c1.56-.42,3.2-.7,4.81-1,.2,0,.41,0,.61-.09,1-.23,2.19-.85,2.85-.65a16.28,16.28,0,0,1,3.38,1.9c.87.49,1.82.93,2.76,1.38.21.09.67.06.73.17,1.08,1.83,3.42,1.48,5.56,1.48a11.46,11.46,0,0,1,6.47,1.73c.35.22.4.67.76.88a20.28,20.28,0,0,0,2.35,1l.19-1.84h2l.57,2c1.51-.2,2.71-.37,3.93-.5,2.2-.23,4.63.54,6.63-.71a3.22,3.22,0,0,1,1.63,0,35.19,35.19,0,0,1,4.52.93,7.16,7.16,0,0,0,5.67,0,3.58,3.58,0,0,1,2,0,25.89,25.89,0,0,1,2.94,1.08l.12,1.15c1.42,0,2.9.8,4-.53.17-.22,1.28-.11,2.11-.11l-1.5,3,.79.32c.69-.46,1.4-1,2.07-1.48,1.42-1,2.65-2.26,5.3-2a6.88,6.88,0,0,0,2.39-.59c2.48-.79,4.29,0,4.95,2l4.73-.63.12-1.53c1.89-.3,4.1.63,5.61-1.13l3.8,3.84c.63-.54,1.1-.91,1.53-1.31a6.73,6.73,0,0,1,5.78-1.42,1.17,1.17,0,0,1,.61.27c1.16,1.87,3.69,1.22,5.74,1.38a2.73,2.73,0,0,0,1.15-.37l8.41.7-2.49.81c2.16.79,4.64.77,5.74-.4.77-.83,1.49-.72,2.46-.72h2.92c1.67,0,2.42-.72,2.6-2.52,1.86.72,3.31-2,5.22-.19,2.09-1,4.11-2,6.21-3a2.76,2.76,0,0,1,1.61,0c1.19.47,2.26,1.07,3.4,1.6a5.92,5.92,0,0,0,1.19,0l-1.51-3.05c3.71-.59,4.51-.23,5,2.24l3.26-.13-1.08-1.34,2.18-.44-1.85-2a6.76,6.76,0,0,1,1.42-.21c2,.11,3.67-.12,4.76-1.4a2.68,2.68,0,0,1,1.26,0c.41.09.78.46,1.11.46,2.72-.26,4.4.83,6.14,1.95a15.65,15.65,0,0,0,2.65.91l-.26-2.85,4.9,1.46c.67-1.17,2-1.62,4.18-1.51s4.3-.07,6.44,0a15.62,15.62,0,0,1,2.42.62c1.1.2,2.24.3,3.85.52l-.89-2.82c.34-.78,1.77-.78,3.34-.78a3.23,3.23,0,0,0,2.64-.65c.32-.26,1.89,0,3.54,0-1.24.93-2.12,1.56-2.94,2.22a6.27,6.27,0,0,0-.84.94c.78,0,2,.14,2.28-.13,2.12-1.9,4.74-2.5,8.29-2.41,1.74,0,3.56-1.14,5.3-1.82a14.15,14.15,0,0,0,1.72-1V10.9c2.39-.78,4.53-1.43,6.53-2.14,1.39-.49,5.39-.19,6.39.53.67-.33,1.13-1.37,2.21-.12.39.44,2.25.1,2.59,1.11a4.69,4.69,0,0,0,2-.2c1.16-1.06,2.5-.54,3.82-.4a13.38,13.38,0,0,1,1.66.28l7,.52.17,1.51c.49-.12.88-.18,1.23-.3a6.51,6.51,0,0,1,1.6-.52c2.75-.14,2.75-.11,3.89-1.74,1.21,1,2.37,1,4,.21l.18-.07a2.06,2.06,0,0,1,2.65,1.26c.38.88.92,1.24,2.72,1l-.69-3.11,2.62-.1c1,1.86,1.68,1.9,4.2,1a46.51,46.51,0,0,1,5.94-1.27l.54,1.74a15.18,15.18,0,0,0,1.91-.1,9,9,0,0,0,1.52-.49c-.23.58,1.45.91.34,1.72-.6.43-.51,1.3-.83,2.24l2.4,1.27.14-.19,2.16,2.37a5.4,5.4,0,0,1,5.33-.28c1.53.68,2.66-.64,4-1,1.62-.45,3.11-1.13,4.41-1.6,2.75,2.22,5.69.68,8.2,1.21l.19-.34L363.67,14l.13-.41c2.65.47,5.41-.78,8,.65a3.11,3.11,0,0,0,1.71.08c.85-1.37,2.48-.47,3.78-.74l.57,1.49c3-1.1,4.09-.78,4.75,1.32.1.33.63.6.85.79l-1,1.93.66.45A21.7,21.7,0,0,0,387.48,18a4.93,4.93,0,0,1,6.22.15c.21.15.22.43.32.65l.7-.27c.15-.45.11-1.07.48-1.47a2,2,0,0,1,1.63-.4,43.79,43.79,0,0,1,6.27.36,38.09,38.09,0,0,1,5.78,2c-.25.28-.68.72-1.06,1.19-.15.17-.34.42-.26.59a1.16,1.16,0,0,0,.77.3,2.31,2.31,0,0,0,1.19-.14c1.81-1.46,2.84-.45,4,.57l-2.3.57c1.3,1.68,3.86,1.78,6.45,2.58l-.76,2.7h-.55l1.71,1c1.44-1.08,4.17-1,6.05-.16a13.43,13.43,0,0,0,3.39.45,12.92,12.92,0,0,1,.12,1.38c2.7.57,5.69-.71,8.28.86l.46-1.41c1.07.19,2.88.66,3.07.47a3,3,0,0,1,2.79-.63,28.43,28.43,0,0,1,5,1c1.32.45,1.21.61,2.1-.23a4.24,4.24,0,0,0,4.92.13c1,.46,2,.94,3,1.38a1.91,1.91,0,0,0,1,.13c1.63-1.28,3.39-.12,5.06-.18a44,44,0,0,0,5.12-.69c2.21-.38,3.51,1,5.39,1.19a9.86,9.86,0,0,0,1.95.28,30.33,30.33,0,0,1,3.79-.54c2.12.07,4.36-.41,6.36.61a2.2,2.2,0,0,0,1.39,0c3-1.4,6.47-.27,9.67-.61.7-.07,1.7,1.31,2.7,2.12a6,6,0,0,0,.39-1.18V1.39H0Z" transform="translate(0 -0.28)"/></g></svg>