<svg id="Layer_1" data-name="Layer 1" xmlns="http://www.w3.org/2000/svg" viewBox="0 0 499.56 77.53"><defs><style>.cls-1{fill:#c6c6c6;}.cls-2{fill:#fff;}</style></defs><title>shredded-paper-top</title><path class="cls-1" d="M.44.47V73.36a2.83,2.83,0,0,0,.37.09l1.73,0a.84.84,0,0,1,.53.17,2.53,2.53,0,0,0,.85.43,1.57,1.57,0,0,1,.33.19,1.08,1.08,0,0,0,.71.24,2.2,2.2,0,0,1,.37.07.42.42,0,0,1,.3.22.51.51,0,0,1,.09.16.7.7,0,0,0,.7.54l2.11,0a1.3,1.3,0,0,1,.71.25.57.57,0,0,0,.16.11,5.72,5.72,0,0,1,1,.47.74.74,0,0,0,.36.09,1.88,1.88,0,0,1,1.07.38.85.85,0,0,0,.36.12,3,3,0,0,0,.95,0,1.73,1.73,0,0,0,.69-.31.67.67,0,0,1,.72,0,1.58,1.58,0,0,1,.15.12.79.79,0,0,0,.73.1c.12,0,.23-.11.35-.15a.34.34,0,0,1,.17,0,1.14,1.14,0,0,0,.92-.09.68.68,0,0,1,.72.06.88.88,0,0,0,.15.12.73.73,0,0,0,.89,0c.19-.16.38-.34.58-.5a.91.91,0,0,1,.52-.2l1.34,0a1.1,1.1,0,0,0,.54-.19,1.32,1.32,0,0,1,.33-.18,1.25,1.25,0,0,1,.93,0c.12,0,.22.14.33.19l.36.13a.54.54,0,0,0,.5-.2l.14-.36c.12-.25.22-.33.41-.35a.52.52,0,0,1,.36.09,1.76,1.76,0,0,0,1,.41l.19,0a.83.83,0,0,1,.35.15,1.41,1.41,0,0,0,.89.3l.57,0a1,1,0,0,1,.54.16,1.56,1.56,0,0,0,.9.29,1.43,1.43,0,0,1,.71.26,1,1,0,0,0,.71.24c.25,0,.51,0,.76.07a.93.93,0,0,1,.52.22.92.92,0,0,0,.51.23,7.5,7.5,0,0,0,1.34,0,.82.82,0,0,0,.53-.19,10.94,10.94,0,0,1,1.13-1,.34.34,0,0,1,.36,0,1.94,1.94,0,0,0,1.11.2.65.65,0,0,0,.36-.12,1.4,1.4,0,0,1,1.08-.29.75.75,0,0,1,.36.1,3.06,3.06,0,0,0,.86.4,2.1,2.1,0,0,1,.5.29.75.75,0,0,0,.35.13l1,.08a.88.88,0,0,1,.52.22.88.88,0,0,0,.52.23c.31,0,.63,0,1,.07a.82.82,0,0,1,.37.1,1.81,1.81,0,0,0,.33.2,1.47,1.47,0,0,0,1.11,0,.91.91,0,0,0,.17-.09,1.76,1.76,0,0,0,.53-.78l.07-.18a.6.6,0,0,1,.45-.31c.2,0,.39,0,.58,0l1.34,0a.75.75,0,0,0,.52-.19c.09-.09.2-.16.29-.25a.78.78,0,0,1,.87-.22.36.36,0,0,0,.36,0,.48.48,0,0,1,.36-.06,1,1,0,0,0,.74,0,1.78,1.78,0,0,1,.36-.14,3.36,3.36,0,0,1,1.14,0,.7.7,0,0,1,.35.16l.74.6a.53.53,0,0,0,.17.08,1.76,1.76,0,0,0,.94,0,.58.58,0,0,0,.18-.08.49.49,0,0,1,.52,0,1.65,1.65,0,0,0,.73.19c.33,0,.4,0,.89-.28a1.4,1.4,0,0,1,1.29,0,1.19,1.19,0,0,0,.69.29l.38,0a.83.83,0,0,1,.51.23,2.74,2.74,0,0,0,.57.51.38.38,0,0,0,.36,0,.56.56,0,0,0,.17-.09l.57-.52a.64.64,0,0,1,.54-.05c.71.42.72.41,1.23.41l.39,0a1.22,1.22,0,0,0,.71-.25,1.38,1.38,0,0,1,.5-.25.93.93,0,0,0,.35-.16,1.7,1.7,0,0,0,.71-.87c.14-.2.22-.23.47-.12a1.4,1.4,0,0,0,.17.09.66.66,0,0,0,.71-.14c.38-.34.74-.71,1.12-1.05a.77.77,0,0,1,.73-.09s.12,0,.16.09a1.45,1.45,0,0,0,.51.26,2.6,2.6,0,0,1,.36.13,4.82,4.82,0,0,0,.5.27.43.43,0,0,0,.19,0,1.29,1.29,0,0,0,.92-.15,1.51,1.51,0,0,1,.9-.27c.19,0,.38,0,.58,0l2.48,0a.91.91,0,0,0,.54-.17,1.39,1.39,0,0,1,.7-.28,2.5,2.5,0,0,0,.38-.06.58.58,0,0,0,.47-.52c0-.13,0-.26,0-.39a.91.91,0,0,1,.34-.66,1.79,1.79,0,0,1,.13-.14.9.9,0,0,1,.52-.22.54.54,0,0,1,.35.13,1.4,1.4,0,0,0,.87.35,1.3,1.3,0,0,1,.88.31.85.85,0,0,0,.35.15,1.15,1.15,0,0,1,.5.26c.14.13.29.25.44.37l.16.11a.3.3,0,0,0,.35,0,6.77,6.77,0,0,1,.85-.43,3.5,3.5,0,0,1,.85-.41c.15,0,.17-.18.11-.31a1.09,1.09,0,0,1-.15-.73.46.46,0,0,1,.59-.31,4.83,4.83,0,0,0,.67.36,3,3,0,0,1,.83.47.73.73,0,0,0,.36.11,1.21,1.21,0,0,0,.91-.2,2.15,2.15,0,0,1,.66-.37,1.09,1.09,0,0,0,.33-.19,4.84,4.84,0,0,0,.83-.8.79.79,0,0,0,.15-.35,1.2,1.2,0,0,0,0-.38,1.29,1.29,0,0,1,.24-.71A1.16,1.16,0,0,0,91,69c0-.13,0-.26,0-.39a1,1,0,0,1,.33-.67,3.88,3.88,0,0,0,.39-.42,1,1,0,0,0,.24-.51l0-.39c0-.12,0-.25,0-.38a1.21,1.21,0,0,1,.37-.86,1.06,1.06,0,0,1,.83-.4,1.15,1.15,0,0,1,.73.17c.06,0,.11.09.17.09a.58.58,0,0,0,.36-.08A3,3,0,0,0,95,64.8a1.22,1.22,0,0,1,.48-.3,1.53,1.53,0,0,0,.52-.23,1.44,1.44,0,0,1,.71-.27c.19,0,.37-.06.56-.09l.44-.37c.15-.12.31-.22.47-.34a.22.22,0,0,1,.33,0l.45.36a.53.53,0,0,0,.7,0c.14-.12.3-.24.43-.37a.81.81,0,0,1,.52-.22l.57,0,.38,0a.45.45,0,0,0,.33-.17.57.57,0,0,0,0-.54l-.09-.17-.09-.17a.65.65,0,0,1,.08-.87c.27-.28.43-.43.8-.13a1.15,1.15,0,0,1,.46.6.87.87,0,0,0,.07.17.52.52,0,0,0,.67.16,6.08,6.08,0,0,0,1-.89,1.5,1.5,0,0,0,.24-.51.61.61,0,0,1,.55-.45l.57-.08a.73.73,0,0,0,.34-.17,1.22,1.22,0,0,1,.91-.21,1.07,1.07,0,0,1,.54.17,1.23,1.23,0,0,0,.33.19.63.63,0,0,0,.55-.08c.26-.18.5-.39.75-.59A.86.86,0,0,1,110,59a1.55,1.55,0,0,0,.76-.55,1.28,1.28,0,0,0,.31-.48,1.92,1.92,0,0,1,.55-.77.9.9,0,0,1,.5-.26l.38,0a1.27,1.27,0,0,0,.68-.32l.29-.26a.49.49,0,0,1,.5-.16c.44.05.55,0,.62-.48l0-.19a1.09,1.09,0,0,1,.34-.67,1.11,1.11,0,0,1,.65-.36,2.19,2.19,0,0,0,.57-.09s.14,0,.17-.08a1.15,1.15,0,0,0,.17-.33,2.5,2.5,0,0,0,.06-.38c0-.2,0-.39,0-.58a.55.55,0,0,1,.47-.51,19.61,19.61,0,0,1,2.3,0,1.53,1.53,0,0,1,.72.2.58.58,0,0,0,.54-.12,12,12,0,0,0,1-.93c.18-.18.38-.35.57-.51a.38.38,0,0,1,.17-.08,2.44,2.44,0,0,1,.76-.09,1.61,1.61,0,0,0,1.07-.34,1,1,0,0,1,.35-.13,2.45,2.45,0,0,1,.38,0l.38,0a1.23,1.23,0,0,0,.72-.23,1.53,1.53,0,0,1,.89-.29,1,1,0,0,0,.55-.17,1.8,1.8,0,0,1,1.08-.29,5.55,5.55,0,0,0,1.15-.06.53.53,0,0,0,.18-.05.44.44,0,0,0,.14-.13c.18-.18.37-.36.54-.55a3.19,3.19,0,0,1,.44-.37.48.48,0,0,1,.67,0,.63.63,0,0,0,.55.09c.18,0,.35-.15.53-.2s.37,0,.56.06c0,0,.09-.06.12-.11a.45.45,0,0,0,0-.36.4.4,0,0,0-.09-.17c-.31-.41-.68-.76-1-1.14-.23-.14-.33-.25-.35-.41a1.58,1.58,0,0,1,0-.75q.08-.22.27-.21a.39.39,0,0,1,.31.19.87.87,0,0,1,.07.17,1.83,1.83,0,0,1,.13.56l.31.22.15.11a.75.75,0,0,0,.55,0,8.36,8.36,0,0,0,.76-.57c.23-.16.42-.13.62.16s.21.31.07.51a1,1,0,0,0-.18.54,6,6,0,0,0,0,.95c0,.17.08.25.23.23a1,1,0,0,0,.18,0,1.19,1.19,0,0,0,.44-.36,2.68,2.68,0,0,1,.57-.49c.21-.16.34-.18.49-.06l.3.25.15.11c.27.19.54.18.6-.09a1.6,1.6,0,0,1,.64-.91.71.71,0,0,1,.55-.08,1.66,1.66,0,0,1,.48.29.78.78,0,0,1,.33.16,1.22,1.22,0,0,1,.38.61,2.05,2.05,0,0,0,.72.62.36.36,0,0,0,.36,0,1,1,0,0,1,1.08,0c.22.11.29.1.53,0a1.46,1.46,0,0,1,.74-.16,1.07,1.07,0,0,1,.55.14,2.64,2.64,0,0,0,.67.34c.26.06.43.27.66.39a1.31,1.31,0,0,0,.55.13h.38a1.39,1.39,0,0,0,.9-.29,1.06,1.06,0,0,1,.7-.24c.26,0,.51,0,.77,0a.92.92,0,0,1,.51.23,1.07,1.07,0,0,0,.32.2.38.38,0,0,0,.37,0c.34-.18.58-.5.91-.69a.25.25,0,0,1,.34,0l.56.53c.13.14.28.26.42.39a.56.56,0,0,0,.54.08,1.42,1.42,0,0,1,.92-.18.77.77,0,0,1,.37.08l.5.29a3.85,3.85,0,0,1,.69.31,1.54,1.54,0,0,0,.91.24h2.88a1.33,1.33,0,0,0,.72-.22,1.33,1.33,0,0,1,.72-.22l2.3,0,1,0a.89.89,0,0,0,.53-.2.82.82,0,0,1,.33-.18l.57-.09a1.38,1.38,0,0,0,.68-.32.59.59,0,0,1,.85,0,.45.45,0,0,1,.38.38h0l.3.23a.83.83,0,0,0,.53.18,1.43,1.43,0,0,0,.73-.14,2.06,2.06,0,0,1,.33-.17h0a.38.38,0,0,1,.29-.19l.35,0a.52.52,0,0,1,.45.24.4.4,0,0,1,0,.34l0,.41a1.21,1.21,0,0,0,.73.54,1.31,1.31,0,0,1,.5.25c.21.15.35,0,.49-.11a3.33,3.33,0,0,0,.28-.25c.24-.24.17-.72-.09-.8s-.23-.09-.35-.13a.48.48,0,0,1-.33-.41,2.82,2.82,0,0,1,0-1.12.39.39,0,0,1,.22-.28,1.28,1.28,0,0,1,.55-.1,1,1,0,0,1,.68.2c0-.16.07-.33.1-.49a.71.71,0,0,1,.08-.18.89.89,0,0,1,.42-.37.45.45,0,0,1,.36,0c.12,0,.24.1.36.13a.43.43,0,0,0,.6-.3,1.62,1.62,0,0,1,.54-.77l.14-.12a.66.66,0,0,1,.35-.16l.56-.1a.51.51,0,0,0,.4-.37,1,1,0,0,1,.69-.6.79.79,0,0,0,.33-.19c.19-.17.35-.36.54-.54a1.16,1.16,0,0,1,.5-.27,1,1,0,0,0,.35-.14,3.92,3.92,0,0,1,.85-.41,9.85,9.85,0,0,1,1-.51.73.73,0,0,0,.29-.23c.09-.1.19-.18.28-.27a1.94,1.94,0,0,1,.82-.48c.21-.07.26-.13.35-.41a1.9,1.9,0,0,1,.38-.66,5.57,5.57,0,0,1,.86-.75.39.39,0,0,1,.18-.06,3.69,3.69,0,0,1,1.15,0,.63.63,0,0,1,.35.13,1.55,1.55,0,0,0,1.08.29l1,0a7,7,0,0,1,.06-.91c0-.34.2-.5.6-.56l.18,0,.72-.07c.18-.24.28-.31.44-.33l.57-.06a.66.66,0,0,0,.36-.13c.29-.27.69-.31,1-.54a1.78,1.78,0,0,1,1.06-.36.9.9,0,0,0,.52-.22c.24-.21.48-.42.71-.64s.53-.56.8-.83a.93.93,0,0,1,.5-.26,3.47,3.47,0,0,0,.56-.11.3.3,0,0,0,.22-.25,2.08,2.08,0,0,1-.21-1.12.72.72,0,0,1,.1-.36,4.61,4.61,0,0,0,.43-.86.58.58,0,0,1,.44-.32l.56-.08a.6.6,0,0,0,.34-.16c.14-.13.3-.25.44-.37a1.28,1.28,0,0,1,.86-.36l2.1,0a.79.79,0,0,0,.54-.18l.72-.63a.83.83,0,0,1,.52-.19l.76,0a5.62,5.62,0,0,0,.58,0,.9.9,0,0,0,.51-.22,1.37,1.37,0,0,0,.58-.95,2.22,2.22,0,0,1,.09-.37,1.33,1.33,0,0,1-.07-.9.43.43,0,0,1,.21-.27.05.05,0,0,1,0,0,1.21,1.21,0,0,1,0-.19.54.54,0,0,1,.05.22.42.42,0,0,1,.16.19,1.16,1.16,0,0,1,0,.18l0,.73.19,0a1.37,1.37,0,0,1,.7.27,2,2,0,0,0,.5.28,1.25,1.25,0,0,1,.49.27c.37.35.76.68,1.14,1a.83.83,0,0,0,.16.09.54.54,0,0,0,.37,0c.17-.07.33-.19.5-.28a.74.74,0,0,1,.87.13,3.44,3.44,0,0,1,.27.27,6.13,6.13,0,0,0,.83.78.68.68,0,0,0,.35.15,2.33,2.33,0,0,0,.38,0,1.36,1.36,0,0,1,.7.26,1,1,0,0,0,.53.19c.44,0,.89,0,1.33.06a.76.76,0,0,1,.52.19,13.77,13.77,0,0,0,1.11,1.05,1,1,0,0,0,.52.21,7.72,7.72,0,0,0,1.52,0,1.27,1.27,0,0,0,.18-.06c.23-.1.41-.3.67-.35a4.3,4.3,0,0,0,.71-.26.34.34,0,0,1,.35,0,7,7,0,0,0,.6.48,7.08,7.08,0,0,0,.68.32.32.32,0,0,1,.14.12c.08.17.15.35.22.53a.28.28,0,0,0,.3.19.47.47,0,0,0,.35-.1,2.44,2.44,0,0,0,.22-.31.49.49,0,0,1,.62-.27.43.43,0,0,0,.36-.08,1.28,1.28,0,0,1,.71-.21c.45,0,.89,0,1.33-.05a.52.52,0,0,0,.43-.33c0-.18.07-.37.12-.56a.3.3,0,0,1,.24-.24.37.37,0,0,1,.33.14.94.94,0,0,1,.33.66v.19a.55.55,0,0,0,.28-.24,2.27,2.27,0,0,1,.81-.79.73.73,0,0,1,0-.36.51.51,0,0,1,.2-.28.42.42,0,0,1,.2.29.52.52,0,0,1-.06.34,1.79,1.79,0,0,1-.13.32.94.94,0,0,0-.15.49c0,.11,0,.23,0,.34a2.49,2.49,0,0,1,.31.23,1.39,1.39,0,0,0,.64.4,1,1,0,0,1,.53.52c.16.29.23.3.42.15a1.17,1.17,0,0,0,.45-.6l.07-.18a.61.61,0,0,1,.57-.43,1.61,1.61,0,0,1,.38,0,.58.58,0,0,1,.47.28,4.37,4.37,0,0,0,1.53.07.62.62,0,0,1,.45-.32.5.5,0,0,1,.49.22,3.22,3.22,0,0,0,.7,1.12,1.64,1.64,0,0,1,.38.65.74.74,0,0,0,.53.5,1.43,1.43,0,0,1,.5.27,3.92,3.92,0,0,0,.57.51.76.76,0,0,0,.73.06,3.56,3.56,0,0,0,.48-.31A2,2,0,0,0,240,36a.74.74,0,0,1,.72.06c.19.17.39.32.58.5s.58.25.85.41a.58.58,0,0,1,.15.11,1.08,1.08,0,0,0,.89.27,1.18,1.18,0,0,0,.54-.17l.3-.23a.59.59,0,0,1,.55,0l.32.2a.64.64,0,0,0,.87,0,1.15,1.15,0,0,1,.69-.28c.57,0,1.15,0,1.72,0a1.18,1.18,0,0,1,.54.17,1.58,1.58,0,0,1,.15.12,1.73,1.73,0,0,0,.51.25,1.32,1.32,0,0,1,.48.29l.59.5c.25.2.6.18.85.4a1.16,1.16,0,0,0,.71.27l.19,0a1,1,0,0,1,.52.2,1.58,1.58,0,0,0,.88.35l.18,0,.6-.07c0-.13,0-.26,0-.39v-.19a.68.68,0,0,1,.38-.4,10,10,0,0,1,2.1,0,1,1,0,0,1,.51.24,1,1,0,0,0,.52.22l.38,0a1,1,0,0,1,.52.22l.42.4a1.26,1.26,0,0,0,.66.36,1.05,1.05,0,0,1,.49.28,5.29,5.29,0,0,1,.41.41,1.14,1.14,0,0,0,.47.31c.12,0,.25.07.36.12s.32.21.49.3.37.09.53.2a2.75,2.75,0,0,0,.86.42.37.37,0,0,1,.16.09,2.51,2.51,0,0,0,.83.46,1.35,1.35,0,0,1,.34.17,1.4,1.4,0,0,0,.9.26l2.49,0a.9.9,0,0,1,.37.07,4,4,0,0,0,.85.42.71.71,0,0,1,.18.08.78.78,0,0,1,.15.1c.19.18.39.35.56.53a.79.79,0,0,0,.5.26,2.17,2.17,0,0,1,1.25.41,2.92,2.92,0,0,1,.86.4,1,1,0,0,0,.53.18,1.87,1.87,0,0,1,.74.18.71.71,0,0,0,.72,0,1.21,1.21,0,0,1,.55-.16,11,11,0,0,1,1.72,0,1,1,0,0,1,.53.2,1.48,1.48,0,0,0,.89.31h1.91a1.59,1.59,0,0,1,.9.27.76.76,0,0,0,.73.05.7.7,0,0,0,.17-.09.32.32,0,0,1,.35,0,2.9,2.9,0,0,0,.54.19,1.2,1.2,0,0,0,1.08-.2,3.63,3.63,0,0,1,.47-.33c.18-.12.41-.11.49.05.25.51.3.5.91.52.44,0,.89,0,1.34,0H289a1.28,1.28,0,0,1,.72.2,1.74,1.74,0,0,0,.9.29,1.11,1.11,0,0,1,.68.32c.13.13.29.25.42.39a1.07,1.07,0,0,0,.49.29,2.28,2.28,0,0,1,.68.34,1,1,0,0,0,.54.14,2.15,2.15,0,0,0,.75-.13c.35-.13.5,0,.57.27l.12.56a.46.46,0,0,0,.43.33h.19a.71.71,0,0,0,.76-.44c.05-.12.12-.23.18-.35a.42.42,0,0,1,.65,0,3.59,3.59,0,0,1,.17.34c.11.23.21.37.37.41a2.91,2.91,0,0,1,.85.41.66.66,0,0,0,.37.1,1.45,1.45,0,0,0,1.07-.31.69.69,0,0,1,.72,0l.16.1a1.17,1.17,0,0,0,.73.18,1,1,0,0,0,.71-.22,1.28,1.28,0,0,1,.52-.23,1.09,1.09,0,0,0,.64-.39l.28-.27a.28.28,0,0,1,.46.06c.07.11.13.22.21.33a.54.54,0,0,0,.3.21,1.35,1.35,0,0,0,.93-.07.77.77,0,0,1,.72-.11c.26,0,.36,0,.51-.11s.37-.36.57-.52a.58.58,0,0,1,.71,0l.16.11a.88.88,0,0,0,.15.12.6.6,0,0,0,.71,0,1.54,1.54,0,0,1,1.05-.36c.32,0,.64,0,1,0a.65.65,0,0,0,.19,0,.54.54,0,0,0,.41-.35,1.34,1.34,0,0,1,.07-.18.56.56,0,0,1,.82-.18l.75.59a.4.4,0,0,0,.17.09,2.42,2.42,0,0,0,.38,0l.5-.27c.23-.12.49-.14.71-.28.05,0,.09-.08.15-.11a1.16,1.16,0,0,1,.54-.18l1,0c.31,0,.63,0,1,0a.83.83,0,0,0,.51-.23,1,1,0,0,1,.69-.28h.58a1.07,1.07,0,0,1,.71.22c.19.16.36.06.51,0s.41-.32.6-.48a.59.59,0,0,1,.71-.08.84.84,0,0,0,.9,0,.88.88,0,0,1,.36-.1c.13,0,.26,0,.38,0h.39a1.21,1.21,0,0,0,.71-.24.72.72,0,0,1,.15-.11,4.2,4.2,0,0,0,.53-.22c.16-.11.22-.31.33-.47s.27-.25.48-.14a1.88,1.88,0,0,0,.73.19,1.94,1.94,0,0,1,.74.2c.3.13.36.09.52-.31a.89.89,0,0,1,.08-.17.52.52,0,0,1,.5-.18,2.2,2.2,0,0,1,.36.13.54.54,0,0,0,.37.07,1,1,0,0,0,.54-.5,1,1,0,0,0,.06-.18c0-.19,0-.38.07-.57a.57.57,0,0,1,.52-.48l.95-.07a1.5,1.5,0,0,0,.36-.11c.35-.32.84-.31,1.21-.56a.47.47,0,0,1,.17-.07.45.45,0,0,1,.18.07,2.1,2.1,0,0,0,.92.24,1.24,1.24,0,0,1,.7.25.71.71,0,0,0,.54.13.53.53,0,0,0,.4-.36c0-.25.08-.51.14-.76a.38.38,0,0,1,.27-.25,1.42,1.42,0,0,1,.93.06l.35.17c.12.05.14,0,.38-.36.12-.21.12-.21.45-.15a.39.39,0,0,0,.46-.24c0-.19.06-.38.1-.57a.5.5,0,0,1,.73-.35l.16.1a.32.32,0,0,0,.47-.14c.07-.1.13-.22.2-.32a.49.49,0,0,1,.5-.2.82.82,0,0,1,.35.13.22.22,0,0,0,.33,0,.38.38,0,0,0-.08-.51,1.29,1.29,0,0,1-.3-.22c-.08-.1-.06-.21.09-.28a2,2,0,0,1,.76-.12,1.36,1.36,0,0,0,.71-.23c.2-.15.36-.06.52,0a3.69,3.69,0,0,0,.62.44.33.33,0,0,0,.36,0c.19-.17.38-.34.56-.52a.79.79,0,0,1,.53-.2,5.43,5.43,0,0,1,.57,0l.76,0a.58.58,0,0,0,.58-.41,1.38,1.38,0,0,1,.54-.77.34.34,0,0,1,.35,0l.35.16a.62.62,0,0,0,.55,0c.12-.05.22-.15.34-.19s.36.06.55.06a.43.43,0,0,0,.19,0,1.21,1.21,0,0,0,.63-.67.67.67,0,0,0,.07-.18c.06-.23.25-.29.44-.32s.63,0,.95-.07a.81.81,0,0,0,.52-.22.81.81,0,0,1,.31-.21,8.59,8.59,0,0,0,.88-.37.22.22,0,0,1,.18,0c.43.09.43.11.7,0a.81.81,0,0,1,1,.16,20.67,20.67,0,0,0,2.08-.09.5.5,0,0,0,.43-.31l.15-.35a.83.83,0,0,1,.05-.56,2.06,2.06,0,0,0,.22-.73c0-.12.05-.25.07-.37a.51.51,0,0,1,.62-.28.7.7,0,0,1,.17.09,1.57,1.57,0,0,0,.89.29,1.3,1.3,0,0,1,.71.23,1.28,1.28,0,0,0,.71.23c.26,0,.51,0,.76,0a1.58,1.58,0,0,0,.37-.11,1.77,1.77,0,0,1,1.06-.35.79.79,0,0,0,.52-.2q.35-.33.72-.63a.91.91,0,0,1,.34-.17,1.73,1.73,0,0,0,.51-.25l.16-.1a.57.57,0,0,1,.81.21,3.68,3.68,0,0,1,.15.35.51.51,0,0,0,.46.29,6.21,6.21,0,0,0,1.14,0,1.4,1.4,0,0,0,.72-.21.59.59,0,0,1,.55,0,3.54,3.54,0,0,0,.34.16,1.85,1.85,0,0,1,.67.34c.19.17.39.33.59.48a.94.94,0,0,0,.54.18l.76,0a1.08,1.08,0,0,1,.53.18,2.2,2.2,0,0,0,.67.37,2.43,2.43,0,0,1,.49.29,1.14,1.14,0,0,0,.54.17c.38,0,.76,0,1.14,0l.19,0a.57.57,0,0,0,.52-.47c0-.19,0-.38.07-.57s.07-.24.31-.45l.12-.7a.56.56,0,0,1,.09-.31,1.25,1.25,0,0,1,.64-.49,3.37,3.37,0,0,1,.31-.21c.19-.12.37-.08.44.11a1.51,1.51,0,0,0,.14.34,3.51,3.51,0,0,0,.87,1,.68.68,0,0,1,.23.29l.16-.11a1.64,1.64,0,0,1,.65-.38,2,2,0,0,0,.66-.39.71.71,0,0,1,.35-.13c.32,0,.64,0,.95,0a1,1,0,0,0,.37-.12,7,7,0,0,1,.66-.37c.24-.09.25-.15.16-.44a2.1,2.1,0,0,1-.13-.55.5.5,0,0,1,.33-.42,1.37,1.37,0,0,1,1.26.26.75.75,0,0,0,.36.13l.95.07a.9.9,0,0,1,.51.24,1.17,1.17,0,0,0,.71.26,21.87,21.87,0,0,0,2.29,0,.77.77,0,0,0,.36-.12,1.58,1.58,0,0,0,.15-.12,1.29,1.29,0,0,1,.7-.27,1.45,1.45,0,0,0,.89-.32,1,1,0,0,1,.34-.16,1.46,1.46,0,0,0,.81-.48c.27-.27.53-.55.81-.81a.84.84,0,0,1,.33-.19,3.08,3.08,0,0,0,.69-.32,1,1,0,0,1,.53-.19,5.58,5.58,0,0,0,.57-.08.67.67,0,0,0,.34-.16,1.07,1.07,0,0,1,.7-.25l2.11-.05a1.11,1.11,0,0,0,.7-.27,1,1,0,0,1,.52-.21c.32,0,.64,0,1,0l3.25,0a1.22,1.22,0,0,0,.72-.21,1.53,1.53,0,0,1,.53-.22l.38,0a1.16,1.16,0,0,0,.54-.18,1.59,1.59,0,0,1,.9-.27c1,0,2,0,3.06,0a1,1,0,0,1,.68.3c.09.09.2.16.29.25a1.45,1.45,0,0,0,.66.37,1.11,1.11,0,0,1,.35.16c.05,0,.11.07.15.11a.87.87,0,0,0,.51.24c.38,0,.77,0,1.15,0a1.56,1.56,0,0,1,.89.3,1,1,0,0,0,.54.17l1.91,0,1.73,0a1.16,1.16,0,0,0,.71-.23,1.51,1.51,0,0,1,1.1-.21l.18,0,.18.08a.4.4,0,0,0,.56-.33,1.33,1.33,0,0,1,.46-1,.41.41,0,0,1,.51,0,1.47,1.47,0,0,1,.58.74.63.63,0,0,0,.57.45,1.58,1.58,0,0,1,1,.42c.14.13.32.22.46.34a.24.24,0,0,0,.35,0,1.06,1.06,0,0,1,.34-.16.67.67,0,0,1,.55.09A7,7,0,0,1,429.52,29a1.13,1.13,0,0,0,.69.29c.25,0,.51,0,.76,0a1,1,0,0,1,.53.21,5,5,0,0,0,.47.33c.34.23.38.23.57-.13a.56.56,0,0,1,.23-.29,1.19,1.19,0,0,1,1.1,0,4.45,4.45,0,0,0,.86.39,2.63,2.63,0,0,1,.35.15c.22.09.27.09.53,0a1.53,1.53,0,0,1,.73-.16,1.14,1.14,0,0,1,.55.13l.16.1a1.22,1.22,0,0,0,.71.25,1.49,1.49,0,0,1,.88.33.92.92,0,0,0,.53.21,2.72,2.72,0,0,1,.56.09c.3.1.53.36.86.41a.87.87,0,0,1,.34.15,1.29,1.29,0,0,0,.7.29,2.65,2.65,0,0,1,.38.05.92.92,0,0,1,.5.25,6.89,6.89,0,0,0,.56.52.79.79,0,0,0,.33.19,1.54,1.54,0,0,1,.68.33.76.76,0,0,0,.34.16,1.41,1.41,0,0,1,.67.36c.14.14.28.26.41.4a1,1,0,0,0,.68.31h.19a1.2,1.2,0,0,1,.7.28c.19.17.38.34.58.5a.64.64,0,0,0,.35.14l.95.07a.87.87,0,0,1,.51.24l1,.91c.09.09.17.19.25.28a1.49,1.49,0,0,1,.29.5c.12.32.27.33.54.06s.39-.31.62-.08.28.26.41.4a.79.79,0,0,0,.53.18,1.57,1.57,0,0,0,.57,0,.52.52,0,0,0,.3-.44,1,1,0,0,0-.22-.53c-.27-.36-.66-.6-.93-1a.36.36,0,0,1-.07-.17.6.6,0,0,1,0-.19c.05-.31.59-.66.88-.31.09.09.19.17.28.27a1,1,0,0,0,.62.4,1.11,1.11,0,0,1,.51.25l.57.51a.58.58,0,0,0,.35.15,2.41,2.41,0,0,0,.38,0,.73.73,0,0,0,.7-.46l.38,0a.81.81,0,0,1,.52.19c.25.21.48.43.72.64a.53.53,0,0,0,.17.08,1.2,1.2,0,0,0,.93,0,1.38,1.38,0,0,0,.33-.2.84.84,0,0,1,.52-.2c.25,0,.51,0,.77,0h.76a1.46,1.46,0,0,1,.9.28,1.3,1.3,0,0,0,.71.25c.19,0,.38,0,.57,0a1.15,1.15,0,0,1,.71.24,1.46,1.46,0,0,0,.72.23l.57,0a1.18,1.18,0,0,1,.72.24,1,1,0,0,0,.53.19,2.36,2.36,0,0,0,.38,0l.38,0a.6.6,0,0,1,.6.38,1.68,1.68,0,0,0,.5.8l.72.63a.65.65,0,0,0,.35.13l.77.06a1.5,1.5,0,0,1,.71.24,1,1,0,0,0,.69.28l1,0a1.51,1.51,0,0,1,.9.26,1.34,1.34,0,0,0,.72.21l.2,0c.18,0,.37.11.44.31a2.12,2.12,0,0,0,.63,1l.43.38a.28.28,0,0,0,.46-.09,1.65,1.65,0,0,1,.2-.31c.19-.24.74-.16.82.1a.8.8,0,0,0,.62.64.89.89,0,0,1,.33.18,2.29,2.29,0,0,0,.67.36c.26.07.43.28.66.38s.36.13.53.21a5,5,0,0,1,.51.27.77.77,0,0,0,.37.08,1.49,1.49,0,0,1,.89.28,1.23,1.23,0,0,0,.72.23c.38,0,.77,0,1.15,0a.84.84,0,0,1,.52.2,1.24,1.24,0,0,0,.7.29l.76,0a1,1,0,0,1,.54.17,1.58,1.58,0,0,0,.9.26l1.53,0a1,1,0,0,1,.54.17,1.61,1.61,0,0,0,.9.29,8.68,8.68,0,0,0,1.14,0,1.21,1.21,0,0,0,.37-.11,2.79,2.79,0,0,0,.33-.19l1.06-.4a1.25,1.25,0,0,1,.19,0,2.43,2.43,0,0,0,.92.22,5.72,5.72,0,0,1,.58,0,1,1,0,0,1,.53.18,1.37,1.37,0,0,0,.89.28h.39a1.42,1.42,0,0,1,.87.33.89.89,0,0,0,.52.21,3.81,3.81,0,0,1,.95.12V.47ZM77.33,73.28a.34.34,0,0,1-.17-.29.3.3,0,0,1,.18-.28.31.31,0,0,1,.16.29A.32.32,0,0,1,77.33,73.28Zm2-2c-.17.08-.31-.07-.3-.31s.18-.36.35-.26a.3.3,0,0,1,.15.3A.35.35,0,0,1,79.38,71.31ZM168.31,48.7s-.08.08-.12.11a.2.2,0,0,1-.13-.26l.12-.11C168.31,48.49,168.36,48.58,168.31,48.7ZM170,47a.32.32,0,0,1-.22.25.52.52,0,0,1-.48-.25.43.43,0,0,1-.11-.5.42.42,0,0,1,.15-.12.41.41,0,0,1,.19,0A.48.48,0,0,1,170,47Zm130.21,1.72s-.09.06-.13.09a.21.21,0,0,1-.11-.27l.14-.09A.18.18,0,0,1,300.16,48.71Zm36.27-7.4a.42.42,0,0,1-.47-.07.39.39,0,0,1,0-.14c0-.14.24-.22.44-.16a.23.23,0,0,1,.19.23A.25.25,0,0,1,336.43,41.31Zm120.6-5v0a.19.19,0,0,1-.28,0c-.11-.1-.11-.2,0-.28a.22.22,0,0,1,.16,0,.21.21,0,0,1,.1.27l0,0Z" transform="translate(-0.44 -0.47)"/><polygon class="cls-2" points="172.52 48.26 172.52 48.26 172.52 48.26 172.52 48.26"/><path class="cls-2" d="M173,48.67h0v.07Z" transform="translate(-0.44 -0.47)"/><path class="cls-2" d="M.45.47V72.92A1.53,1.53,0,0,0,.82,73c.57,0,1.15,0,1.72,0a.86.86,0,0,1,.54.16,2.26,2.26,0,0,0,.84.44,1,1,0,0,1,.33.18,1,1,0,0,0,.71.24l.38.07a.42.42,0,0,1,.3.22.83.83,0,0,1,.09.16.7.7,0,0,0,.7.53l2.1,0a1.35,1.35,0,0,1,.72.24c.05,0,.09.1.15.12a5.07,5.07,0,0,1,1,.46.81.81,0,0,0,.37.09,2,2,0,0,1,1.07.37.87.87,0,0,0,.35.13,3.43,3.43,0,0,0,1,0,1.88,1.88,0,0,0,.69-.32.65.65,0,0,1,.71,0,1.67,1.67,0,0,1,.16.12.8.8,0,0,0,.72.1c.12,0,.23-.11.35-.15a.24.24,0,0,1,.18,0,1.16,1.16,0,0,0,.91-.09.65.65,0,0,1,.72.06l.15.12a.75.75,0,0,0,.89,0c.2-.17.38-.34.58-.5a.91.91,0,0,1,.53-.2c.45,0,.89,0,1.34,0a1,1,0,0,0,.53-.19,1.59,1.59,0,0,1,.34-.18,1.35,1.35,0,0,1,.93,0c.12,0,.21.14.33.19a2.09,2.09,0,0,0,.35.13.52.52,0,0,0,.5-.2c.06-.11.1-.24.15-.35s.21-.33.4-.35a.54.54,0,0,1,.37.08,1.67,1.67,0,0,0,1,.41,1.06,1.06,0,0,1,.19,0,.83.83,0,0,1,.35.14,1.45,1.45,0,0,0,.89.3l.58,0a1.13,1.13,0,0,1,.54.16,1.6,1.6,0,0,0,.89.29,1.39,1.39,0,0,1,.71.26,1.1,1.1,0,0,0,.71.24l.77.06a.87.87,0,0,1,.51.22.88.88,0,0,0,.52.23,7.49,7.49,0,0,0,1.34,0,.8.8,0,0,0,.52-.19,12.21,12.21,0,0,1,1.14-1,.34.34,0,0,1,.36,0,1.94,1.94,0,0,0,1.11.2.7.7,0,0,0,.35-.12,1.4,1.4,0,0,1,1.08-.29.79.79,0,0,1,.37.1,3.37,3.37,0,0,0,.86.4,2,2,0,0,1,.49.29.77.77,0,0,0,.36.12l.95.09a.93.93,0,0,1,.52.22,1,1,0,0,0,.51.23c.32,0,.64,0,1,.06a.75.75,0,0,1,.36.1,2.23,2.23,0,0,0,.33.2,1.47,1.47,0,0,0,1.11,0,.91.91,0,0,0,.17-.09,1.7,1.7,0,0,0,.54-.78.51.51,0,0,1,.07-.17.57.57,0,0,1,.45-.31,5.46,5.46,0,0,1,.57,0c.45,0,.9,0,1.34,0a.75.75,0,0,0,.53-.19c.08-.09.2-.16.29-.25a.77.77,0,0,1,.87-.21.42.42,0,0,0,.36,0,.43.43,0,0,1,.36-.07.91.91,0,0,0,.74,0,1.66,1.66,0,0,1,.35-.13,3.42,3.42,0,0,1,1.15,0,.82.82,0,0,1,.34.16l.74.6a.53.53,0,0,0,.17.08,1.8,1.8,0,0,0,1,0,.89.89,0,0,0,.17-.08.49.49,0,0,1,.52,0,1.73,1.73,0,0,0,.74.19c.33,0,.4,0,.89-.28a1.38,1.38,0,0,1,1.28,0,1.21,1.21,0,0,0,.7.29l.38,0a.85.85,0,0,1,.51.23,2.72,2.72,0,0,0,.56.51.43.43,0,0,0,.37,0,.42.42,0,0,0,.16-.09l.57-.51a.67.67,0,0,1,.55-.06c.71.42.71.42,1.23.41h.38a1.2,1.2,0,0,0,.71-.25,1.43,1.43,0,0,1,.51-.25,1.06,1.06,0,0,0,.34-.16,1.67,1.67,0,0,0,.72-.87c.13-.2.21-.23.47-.11l.16.09a.66.66,0,0,0,.71-.15c.38-.34.74-.7,1.13-1a.74.74,0,0,1,.72-.08.89.89,0,0,1,.17.08,1.24,1.24,0,0,0,.51.26,2.09,2.09,0,0,1,.35.13l.51.27a.58.58,0,0,0,.18,0,1.34,1.34,0,0,0,.92-.15,1.54,1.54,0,0,1,.91-.27c.19,0,.38,0,.57,0l2.49,0a.91.91,0,0,0,.54-.17,1.37,1.37,0,0,1,.7-.27l.37-.06a.59.59,0,0,0,.48-.53c0-.12,0-.25,0-.38,0-.32.06-.35.34-.66a.86.86,0,0,1,.13-.14.83.83,0,0,1,.51-.21.52.52,0,0,1,.36.12,1.37,1.37,0,0,0,.86.35,1.33,1.33,0,0,1,.89.31.81.81,0,0,0,.34.15,1,1,0,0,1,.5.26l.45.36a.91.91,0,0,0,.16.11.29.29,0,0,0,.35,0,7.31,7.31,0,0,1,.84-.42,3.4,3.4,0,0,1,.86-.41c.15,0,.16-.18.1-.3a1.1,1.1,0,0,1-.14-.73.46.46,0,0,1,.59-.31,4.32,4.32,0,0,0,.67.36,3.38,3.38,0,0,1,.83.46.64.64,0,0,0,.36.11,1.15,1.15,0,0,0,.9-.2,2.17,2.17,0,0,1,.67-.36,1.77,1.77,0,0,0,.33-.19,5.7,5.7,0,0,0,.83-.8,1.17,1.17,0,0,0,.15-.34,2.32,2.32,0,0,0,0-.38,1.15,1.15,0,0,1,.24-.71,1.1,1.1,0,0,0,.22-.52c0-.13,0-.25,0-.38a1.1,1.1,0,0,1,.33-.67,5.14,5.14,0,0,0,.4-.41.91.91,0,0,0,.23-.52c0-.12,0-.25,0-.38s0-.25,0-.38a1.14,1.14,0,0,1,.36-.85,1.09,1.09,0,0,1,.83-.4,1.16,1.16,0,0,1,.74.17.51.51,0,0,0,.16.09.59.59,0,0,0,.37-.08,3,3,0,0,0,.46-.34,1.15,1.15,0,0,1,.48-.3,1.85,1.85,0,0,0,.52-.22,1.48,1.48,0,0,1,.7-.28l.57-.08.44-.37.46-.34a.23.23,0,0,1,.34,0l.45.36a.53.53,0,0,0,.69,0,5.2,5.2,0,0,0,.44-.38.8.8,0,0,1,.51-.21c.19,0,.38,0,.57,0l.39,0a.47.47,0,0,0,.33-.17.55.55,0,0,0,0-.54l-.08-.17s-.07-.1-.1-.16a.68.68,0,0,1,.08-.87c.27-.28.43-.43.8-.13a1.1,1.1,0,0,1,.46.6c0,.06,0,.12.08.17a.54.54,0,0,0,.67.16,6,6,0,0,0,1-.88,1.32,1.32,0,0,0,.25-.52.6.6,0,0,1,.55-.44l.57-.08a.84.84,0,0,0,.34-.17,1.25,1.25,0,0,1,.9-.21,1.14,1.14,0,0,1,.54.17,1.28,1.28,0,0,0,.34.19.67.67,0,0,0,.55-.08c.26-.18.5-.39.75-.59a.89.89,0,0,1,.33-.18,1.62,1.62,0,0,0,.77-.54,1.15,1.15,0,0,0,.3-.48,2,2,0,0,1,.55-.77.89.89,0,0,1,.5-.25c.13,0,.26,0,.38-.05a1.16,1.16,0,0,0,.68-.31,3.47,3.47,0,0,1,.29-.25.5.5,0,0,1,.51-.17c.44.06.54,0,.62-.48l0-.19a1,1,0,0,1,.33-.66,1.14,1.14,0,0,1,.66-.36,1.77,1.77,0,0,0,.56-.09c.06,0,.14,0,.17-.08a1.06,1.06,0,0,0,.18-.33,1.58,1.58,0,0,0,0-.38c0-.19,0-.38,0-.57a.54.54,0,0,1,.48-.5,19.45,19.45,0,0,1,2.29,0,1.57,1.57,0,0,1,.73.2.55.55,0,0,0,.53-.11c.35-.28.64-.62,1-.93s.37-.34.56-.51a.58.58,0,0,1,.18-.08,2.37,2.37,0,0,1,.75-.08,1.6,1.6,0,0,0,1.07-.34,1,1,0,0,1,.36-.13,2.32,2.32,0,0,1,.38,0h.38a1.23,1.23,0,0,0,.72-.23,1.48,1.48,0,0,1,.89-.29,1,1,0,0,0,.54-.16,1.77,1.77,0,0,1,1.09-.3,5.45,5.45,0,0,0,1.14,0,1.06,1.06,0,0,0,.19-.06,1.49,1.49,0,0,0,.14-.12l.54-.55A3.81,3.81,0,0,1,131,48a.51.51,0,0,1,.68,0,.61.61,0,0,0,.54.09c.19,0,.36-.14.54-.2s.37,0,.56.07c0,0,.09-.07.11-.12a.45.45,0,0,0,.05-.36,1.4,1.4,0,0,0-.09-.17c-.31-.4-.69-.75-1-1.13-.23-.14-.33-.25-.36-.4a1.63,1.63,0,0,1,0-.76.25.25,0,0,1,.27-.2.37.37,0,0,1,.3.19.53.53,0,0,1,.08.17,2.08,2.08,0,0,1,.13.56l.3.22.16.11a.75.75,0,0,0,.55,0,8.26,8.26,0,0,0,.76-.56c.23-.17.42-.13.61.15s.22.31.07.51a1.12,1.12,0,0,0-.18.54,5.9,5.9,0,0,0,0,.94c0,.17.07.25.23.23a.86.86,0,0,0,.17,0,1.18,1.18,0,0,0,.44-.35,2.39,2.39,0,0,1,.57-.49c.21-.17.34-.18.5-.06l.29.24.15.12c.28.19.54.17.6-.09a1.55,1.55,0,0,1,.65-.91.68.68,0,0,1,.54-.08,1.86,1.86,0,0,1,.49.29.65.65,0,0,1,.32.16,1.22,1.22,0,0,1,.38.61,2.27,2.27,0,0,0,.73.61.36.36,0,0,0,.36,0,1,1,0,0,1,1.07,0,.44.44,0,0,0,.53,0,1.47,1.47,0,0,1,.74-.15,1,1,0,0,1,.55.13,2.71,2.71,0,0,0,.68.34c.25.06.43.27.65.38a1.22,1.22,0,0,0,.56.14h.38a1.36,1.36,0,0,0,.89-.29,1.09,1.09,0,0,1,.71-.24,6.43,6.43,0,0,1,.76,0,.94.94,0,0,1,.52.23,1.27,1.27,0,0,0,.31.2.46.46,0,0,0,.38,0c.34-.18.57-.5.91-.69a.25.25,0,0,1,.34,0,6.88,6.88,0,0,1,.55.53,5.08,5.08,0,0,0,.43.38.53.53,0,0,0,.54.08,1.56,1.56,0,0,1,.92-.18.92.92,0,0,1,.37.09l.49.28a5.51,5.51,0,0,1,.7.31,1.52,1.52,0,0,0,.91.24h2.87a1.36,1.36,0,0,0,.73-.22,1.33,1.33,0,0,1,.72-.22l2.3,0c.32,0,.64,0,.95,0a1,1,0,0,0,.53-.2.66.66,0,0,1,.34-.18c.18,0,.37-.07.56-.09a1.57,1.57,0,0,0,.69-.32c.31-.23.5-.22.85,0a.46.46,0,0,1,.38.38h0l.3.23a.87.87,0,0,0,.52.17,1.31,1.31,0,0,0,.73-.14l.34-.17h0a.42.42,0,0,1,.28-.19,2.17,2.17,0,0,1,.36,0,.49.49,0,0,1,.44.24.32.32,0,0,1,0,.33l0,.41a1.18,1.18,0,0,0,.74.53,1.57,1.57,0,0,1,.5.25c.2.15.34,0,.49-.1a2.2,2.2,0,0,0,.27-.26c.24-.23.18-.71-.09-.79-.11,0-.23-.09-.34-.13a.48.48,0,0,1-.34-.4,3.24,3.24,0,0,1,0-1.12.45.45,0,0,1,.23-.28,1.4,1.4,0,0,1,.54-.1,1.1,1.1,0,0,1,.69.2c0-.16.06-.32.1-.48a.67.67,0,0,1,.07-.18,1,1,0,0,1,.42-.37.48.48,0,0,1,.37,0c.12,0,.23.1.35.13a.45.45,0,0,0,.61-.3,1.73,1.73,0,0,1,.53-.77l.15-.12a.71.71,0,0,1,.34-.16l.57-.1a.48.48,0,0,0,.4-.36.92.92,0,0,1,.69-.59.88.88,0,0,0,.32-.19c.19-.17.36-.37.55-.54a1.18,1.18,0,0,1,.49-.27,1.13,1.13,0,0,0,.36-.14,3.71,3.71,0,0,1,.85-.41c.35-.15.66-.38,1-.5a.76.76,0,0,0,.3-.24l.28-.26a2,2,0,0,1,.81-.48c.22-.07.27-.13.36-.4a1.75,1.75,0,0,1,.38-.66,5.64,5.64,0,0,1,.86-.75,1,1,0,0,1,.18-.06,3.63,3.63,0,0,1,1.14,0,.75.75,0,0,1,.36.13,1.61,1.61,0,0,0,1.08.3l1-.06c0-.3,0-.6.06-.9s.21-.5.61-.56l.18,0,.72-.07c.18-.23.28-.31.44-.33s.38,0,.57-.06a.54.54,0,0,0,.35-.13c.29-.26.7-.3,1-.53a1.79,1.79,0,0,1,1.07-.36.85.85,0,0,0,.51-.22c.25-.21.49-.42.71-.64s.53-.55.8-.82a1,1,0,0,1,.5-.26,5.67,5.67,0,0,0,.57-.1.3.3,0,0,0,.21-.26,2,2,0,0,1-.21-1.11.72.72,0,0,1,.1-.36,3.4,3.4,0,0,0,.43-.85.6.6,0,0,1,.44-.32l.57-.08a.63.63,0,0,0,.34-.16c.14-.13.29-.24.44-.37a1.25,1.25,0,0,1,.86-.35l2.1,0a.79.79,0,0,0,.53-.18l.72-.63a.9.9,0,0,1,.53-.19l.76,0,.57,0a1,1,0,0,0,.52-.21,1.36,1.36,0,0,0,.57-.95c0-.13.06-.25.09-.37a1.36,1.36,0,0,1-.07-.89.46.46,0,0,1,.22-.27l0,0a1.2,1.2,0,0,1,0-.19.79.79,0,0,1,0,.22.29.29,0,0,1,.15.19.58.58,0,0,1,0,.18c0,.24,0,.48,0,.72l.19,0a1.31,1.31,0,0,1,.7.26,2.15,2.15,0,0,0,.49.28,1.29,1.29,0,0,1,.5.27l1.13,1a.91.91,0,0,0,.17.09.53.53,0,0,0,.37.05,4.76,4.76,0,0,0,.49-.28.76.76,0,0,1,.88.13c.09.09.18.17.27.27a5.05,5.05,0,0,0,.83.77.65.65,0,0,0,.34.15l.38.05a1.3,1.3,0,0,1,.71.25,1,1,0,0,0,.53.19c.44,0,.88,0,1.33.06a.78.78,0,0,1,.52.19,12.09,12.09,0,0,0,1.11,1,1,1,0,0,0,.52.21,7.73,7.73,0,0,0,1.52,0l.18-.06c.23-.1.41-.3.66-.35a4.77,4.77,0,0,0,.72-.26.33.33,0,0,1,.35.06c.2.15.38.34.59.47s.46.21.69.32a.25.25,0,0,1,.13.12,4.93,4.93,0,0,1,.22.53.3.3,0,0,0,.3.19.52.52,0,0,0,.35-.1,2.18,2.18,0,0,0,.22-.31.52.52,0,0,1,.63-.28.38.38,0,0,0,.35-.07,1.32,1.32,0,0,1,.72-.21c.44,0,.89,0,1.33,0a.52.52,0,0,0,.42-.33c0-.18.08-.37.13-.55a.29.29,0,0,1,.24-.24.35.35,0,0,1,.33.14.93.93,0,0,1,.32.66,1.28,1.28,0,0,0,0,.19.62.62,0,0,0,.28-.25,2.17,2.17,0,0,1,.81-.78.73.73,0,0,1,0-.36.43.43,0,0,1,.2-.28.38.38,0,0,1,.19.29.58.58,0,0,1,0,.34,1.79,1.79,0,0,1-.13.32,1,1,0,0,0-.16.48c0,.12,0,.23,0,.34a2.37,2.37,0,0,1,.3.23,1.45,1.45,0,0,0,.64.4.93.93,0,0,1,.54.51c.15.29.22.3.41.15a1.17,1.17,0,0,0,.46-.59,1.27,1.27,0,0,1,.06-.18.63.63,0,0,1,.57-.43,1.7,1.7,0,0,1,.39,0,.57.57,0,0,1,.46.27,4.43,4.43,0,0,0,1.54.08.61.61,0,0,1,.44-.32.49.49,0,0,1,.49.22,3.42,3.42,0,0,0,.7,1.11,1.66,1.66,0,0,1,.39.65.74.74,0,0,0,.53.5,1.18,1.18,0,0,1,.49.27,4.63,4.63,0,0,0,.58.5.74.74,0,0,0,.72.06,4,4,0,0,0,.49-.3,2.24,2.24,0,0,0,.86-.39.76.76,0,0,1,.73,0c.18.17.39.33.57.5s.58.25.86.4l.15.12a1.1,1.1,0,0,0,.88.27,1.12,1.12,0,0,0,.54-.18l.31-.22a.55.55,0,0,1,.54,0l.33.2a.63.63,0,0,0,.86,0,1.2,1.2,0,0,1,.69-.28c.58,0,1.15,0,1.72,0a1.1,1.1,0,0,1,.54.16c.06,0,.1.09.15.12a1.51,1.51,0,0,0,.51.25,1.38,1.38,0,0,1,.49.3l.58.49c.26.2.61.18.86.4a1.23,1.23,0,0,0,.7.27l.19,0a1,1,0,0,1,.53.2,1.63,1.63,0,0,0,.87.35l.19,0,.59-.08,0-.38a1.21,1.21,0,0,1,0-.19.64.64,0,0,1,.37-.4,10,10,0,0,1,2.1,0,1,1,0,0,1,.51.23.93.93,0,0,0,.52.22c.13,0,.26,0,.38.06a1,1,0,0,1,.52.22c.14.13.29.25.42.39a1.35,1.35,0,0,0,.66.36,1,1,0,0,1,.5.28,5,5,0,0,1,.4.4,1,1,0,0,0,.48.31c.11,0,.24.07.36.13l.48.29c.17.1.38.09.54.2a2.93,2.93,0,0,0,.85.42.4.4,0,0,1,.17.09,2.5,2.5,0,0,0,.83.46.91.91,0,0,1,.34.17,1.43,1.43,0,0,0,.9.25l2.48,0a.84.84,0,0,1,.38.08,4.17,4.17,0,0,0,.85.41.38.38,0,0,1,.17.08l.16.1a6.88,6.88,0,0,1,.55.53.75.75,0,0,0,.5.25,2.22,2.22,0,0,1,1.25.41,2.7,2.7,0,0,1,.86.4,1,1,0,0,0,.54.18,1.79,1.79,0,0,1,.74.18.71.71,0,0,0,.72,0,1.3,1.3,0,0,1,.54-.16,12.33,12.33,0,0,1,1.72,0,1.17,1.17,0,0,1,.54.19,1.41,1.41,0,0,0,.88.31h1.92a1.65,1.65,0,0,1,.9.28.77.77,0,0,0,.72,0,.56.56,0,0,0,.17-.09.35.35,0,0,1,.36,0,2.47,2.47,0,0,0,.54.19,1.2,1.2,0,0,0,1.08-.2,5.59,5.59,0,0,1,.47-.33c.18-.12.41-.1.48.05.25.51.31.5.91.52s.89,0,1.34,0H289a1.32,1.32,0,0,1,.73.2,1.68,1.68,0,0,0,.89.29,1,1,0,0,1,.68.32c.14.13.29.25.42.38a.92.92,0,0,0,.49.29,2.41,2.41,0,0,1,.68.34,1.07,1.07,0,0,0,.55.14,2.06,2.06,0,0,0,.74-.13c.35-.13.5,0,.58.27s.07.37.12.56a.46.46,0,0,0,.42.32h.19a.71.71,0,0,0,.77-.44,3.59,3.59,0,0,1,.17-.34.43.43,0,0,1,.66,0c0,.11.11.22.17.33s.21.37.36.41a2.91,2.91,0,0,1,.85.41.69.69,0,0,0,.37.1,1.46,1.46,0,0,0,1.08-.31.69.69,0,0,1,.72,0l.16.1a1.17,1.17,0,0,0,.73.18,1,1,0,0,0,.71-.22,1.22,1.22,0,0,1,.52-.23,1.07,1.07,0,0,0,.64-.39l.28-.26a.28.28,0,0,1,.46.06c.07.1.13.22.2.32a.52.52,0,0,0,.3.21,1.45,1.45,0,0,0,.94-.06.74.74,0,0,1,.72-.12.46.46,0,0,0,.51-.1c.19-.18.36-.36.56-.52a.58.58,0,0,1,.71,0l.16.1a1.74,1.74,0,0,0,.15.13.62.62,0,0,0,.71,0,1.57,1.57,0,0,1,1.06-.36c.32,0,.64,0,1,0a.58.58,0,0,0,.18,0,.55.55,0,0,0,.42-.35.87.87,0,0,1,.07-.17.56.56,0,0,1,.82-.18l.75.58a.4.4,0,0,0,.17.09,2.3,2.3,0,0,0,.37,0l.51-.27c.22-.12.49-.14.7-.28s.1-.08.16-.11a1.24,1.24,0,0,1,.53-.18l1,0c.32,0,.64,0,1,0a.81.81,0,0,0,.51-.22.94.94,0,0,1,.69-.28h.57a1.15,1.15,0,0,1,.72.23c.19.16.36.06.51-.05s.4-.31.6-.47a.61.61,0,0,1,.71-.08.82.82,0,0,0,.89,0,.93.93,0,0,1,.37-.1c.12,0,.25,0,.38,0h.38a1.21,1.21,0,0,0,.71-.24.91.91,0,0,1,.16-.11,3.38,3.38,0,0,0,.52-.22c.16-.1.22-.3.33-.46s.27-.25.49-.14a1.83,1.83,0,0,0,.73.18,2.11,2.11,0,0,1,.73.21c.3.13.37.08.52-.31a.91.91,0,0,1,.09-.17.51.51,0,0,1,.5-.18,2.6,2.6,0,0,1,.36.13.5.5,0,0,0,.36.07,1,1,0,0,0,.54-.49,1.27,1.27,0,0,0,.06-.18c0-.19,0-.38.07-.57a.59.59,0,0,1,.52-.48l1-.07a1.65,1.65,0,0,0,.36-.11c.34-.31.83-.31,1.21-.55a.28.28,0,0,1,.17-.07.36.36,0,0,1,.17.07,2,2,0,0,0,.92.23,1.3,1.3,0,0,1,.71.25.69.69,0,0,0,.54.13.5.5,0,0,0,.39-.36c.05-.25.09-.5.15-.75a.36.36,0,0,1,.26-.25,1.38,1.38,0,0,1,.94.06l.34.16c.13.06.15,0,.38-.35.13-.21.13-.21.46-.15a.37.37,0,0,0,.45-.24c0-.19.06-.38.1-.56a.51.51,0,0,1,.74-.35,1.4,1.4,0,0,1,.16.1.32.32,0,0,0,.47-.14c.07-.11.13-.22.2-.32a.48.48,0,0,1,.5-.2.93.93,0,0,1,.35.13c.14.09.24.07.32,0a.36.36,0,0,0-.07-.5,1.73,1.73,0,0,1-.31-.22c-.08-.1-.05-.22.1-.29a1.94,1.94,0,0,1,.75-.12,1.23,1.23,0,0,0,.72-.23c.19-.14.35-.06.51,0a4.46,4.46,0,0,0,.63.44.33.33,0,0,0,.35,0c.2-.16.38-.34.57-.51a.74.74,0,0,1,.52-.2,5.43,5.43,0,0,1,.57,0l.77,0a.55.55,0,0,0,.57-.41,1.39,1.39,0,0,1,.54-.76.36.36,0,0,1,.36,0c.12,0,.23.11.35.16a.7.7,0,0,0,.55,0,2.17,2.17,0,0,1,.33-.19c.19-.06.37.06.56.06a.53.53,0,0,0,.18,0,1.23,1.23,0,0,0,.64-.67l.07-.18a.43.43,0,0,1,.43-.31c.32,0,.64,0,.95-.08a.78.78,0,0,0,.52-.21.85.85,0,0,1,.32-.21c.3-.11.59-.23.88-.37a.2.2,0,0,1,.17,0c.43.09.44.11.71,0a.82.82,0,0,1,1,.16,20.35,20.35,0,0,0,2.07-.09.53.53,0,0,0,.44-.31c0-.12.1-.23.14-.35a.86.86,0,0,1,.05-.55,2.09,2.09,0,0,0,.23-.72,2.53,2.53,0,0,1,.07-.38.5.5,0,0,1,.61-.28l.17.09a1.66,1.66,0,0,0,.89.3,1.2,1.2,0,0,1,.71.23,1.25,1.25,0,0,0,.72.22c.25,0,.51,0,.76,0a1.65,1.65,0,0,0,.36-.11,1.77,1.77,0,0,1,1.07-.34.8.8,0,0,0,.52-.21c.23-.21.47-.43.72-.63a.92.92,0,0,1,.33-.16,1.52,1.52,0,0,0,.51-.25l.16-.1a.58.58,0,0,1,.81.21,3.68,3.68,0,0,1,.15.35.55.55,0,0,0,.46.29,7.36,7.36,0,0,0,1.15,0,1.33,1.33,0,0,0,.72-.2.57.57,0,0,1,.54,0l.35.16a2,2,0,0,1,.67.33c.19.18.39.33.59.49a1,1,0,0,0,.53.17l.76,0a1.16,1.16,0,0,1,.54.18,2.15,2.15,0,0,0,.66.37,2.15,2.15,0,0,1,.49.28,1.18,1.18,0,0,0,.54.17c.38,0,.76,0,1.15,0l.18,0a.57.57,0,0,0,.53-.46l.06-.57c0-.17.08-.24.32-.45l.11-.69a.57.57,0,0,1,.1-.31,1.23,1.23,0,0,1,.63-.49l.31-.21a.28.28,0,0,1,.45.11.94.94,0,0,0,.14.34,3.47,3.47,0,0,0,.86,1,.58.58,0,0,1,.23.28.57.57,0,0,0,.16-.11,1.66,1.66,0,0,1,.66-.37,2.39,2.39,0,0,0,.65-.39.75.75,0,0,1,.36-.13c.31,0,.63,0,.95-.05a1,1,0,0,0,.36-.12,7.12,7.12,0,0,1,.67-.36c.23-.09.25-.16.15-.44a2.07,2.07,0,0,1-.12-.56.48.48,0,0,1,.33-.41,1.37,1.37,0,0,1,1.26.26.75.75,0,0,0,.35.13l1,.07a.92.92,0,0,1,.51.23,1.07,1.07,0,0,0,.7.27,22.06,22.06,0,0,0,2.3,0,.81.81,0,0,0,.35-.12l.16-.12a1.29,1.29,0,0,1,.7-.27,1.48,1.48,0,0,0,.88-.32,1.06,1.06,0,0,1,.34-.16,1.59,1.59,0,0,0,.82-.47c.27-.27.53-.55.81-.81a.88.88,0,0,1,.32-.19,2.55,2.55,0,0,0,.69-.32.92.92,0,0,1,.54-.18l.56-.08a.69.69,0,0,0,.34-.17,1.22,1.22,0,0,1,.71-.25l2.11,0a1.15,1.15,0,0,0,.69-.27,1,1,0,0,1,.53-.21c.31,0,.63,0,.95,0l3.26,0a1.26,1.26,0,0,0,.72-.21,1.44,1.44,0,0,1,.53-.21,2.33,2.33,0,0,1,.38,0,1,1,0,0,0,.53-.19,1.82,1.82,0,0,1,.91-.27c1,0,2,0,3.06,0a1,1,0,0,1,.68.3c.09.09.2.16.29.25a1.45,1.45,0,0,0,.66.37,1.06,1.06,0,0,1,.34.16l.16.11a.84.84,0,0,0,.51.24c.38,0,.76,0,1.15,0a1.5,1.5,0,0,1,.89.29,1,1,0,0,0,.54.18c.63,0,1.27,0,1.91,0h1.72a1.34,1.34,0,0,0,.72-.23,1.47,1.47,0,0,1,1.1-.22l.18,0,.17.08a.41.41,0,0,0,.57-.33,1.3,1.3,0,0,1,.46-1,.38.38,0,0,1,.5,0,1.37,1.37,0,0,1,.59.73.62.62,0,0,0,.56.44,1.62,1.62,0,0,1,1,.43,5.4,5.4,0,0,0,.46.33.22.22,0,0,0,.34,0,.93.93,0,0,1,.35-.16.7.7,0,0,1,.55.08,7.35,7.35,0,0,1,1.11,1.05,1,1,0,0,0,.68.29c.26,0,.52,0,.77,0a1,1,0,0,1,.53.2,3.83,3.83,0,0,0,.46.33c.34.23.39.23.57-.13.06-.11.11-.23.23-.28a1.22,1.22,0,0,1,1.1,0,4.53,4.53,0,0,0,.87.39,2.63,2.63,0,0,1,.35.15c.22.09.27.09.52,0a1.73,1.73,0,0,1,.74-.16,1.17,1.17,0,0,1,.55.13l.16.1a1.15,1.15,0,0,0,.71.24,1.5,1.5,0,0,1,.88.34.88.88,0,0,0,.52.2,2.82,2.82,0,0,1,.57.09c.3.1.52.36.85.41a.8.8,0,0,1,.35.16,1.35,1.35,0,0,0,.69.28,2.32,2.32,0,0,1,.38.05,1,1,0,0,1,.51.25c.17.18.37.34.56.52a.78.78,0,0,0,.33.19,1.52,1.52,0,0,1,.68.32.73.73,0,0,0,.34.17,1.29,1.29,0,0,1,.66.35c.14.14.29.26.42.4a1,1,0,0,0,.68.3l.19,0a1.1,1.1,0,0,1,.69.27l.58.5a.64.64,0,0,0,.35.14l1,.07a.92.92,0,0,1,.51.23c.33.3.66.6,1,.91.1.09.17.19.26.28a1.65,1.65,0,0,1,.28.5c.12.31.27.32.54.05s.39-.3.63-.08l.41.4a.78.78,0,0,0,.52.19,1.78,1.78,0,0,0,.57,0,.5.5,0,0,0,.3-.44.92.92,0,0,0-.21-.52c-.27-.36-.67-.59-.94-1a.51.51,0,0,1-.07-.17.61.61,0,0,1,0-.19c.05-.31.58-.66.88-.32.08.1.19.18.27.27a1.13,1.13,0,0,0,.63.41,1.11,1.11,0,0,1,.51.25l.57.51a.64.64,0,0,0,.34.14,2.54,2.54,0,0,0,.39,0,.74.74,0,0,0,.7-.46l.37,0a.79.79,0,0,1,.53.2l.72.62a.56.56,0,0,0,.17.09,1.2,1.2,0,0,0,.93,0,2.07,2.07,0,0,0,.32-.19.87.87,0,0,1,.53-.2c.25,0,.51,0,.76,0h.77a1.45,1.45,0,0,1,.89.28,1.29,1.29,0,0,0,.71.24l.58,0a1.17,1.17,0,0,1,.71.25,1.52,1.52,0,0,0,.72.22l.57,0a1.29,1.29,0,0,1,.71.24,1,1,0,0,0,.53.19l.38,0,.39,0a.58.58,0,0,1,.59.38,1.78,1.78,0,0,0,.5.79l.73.63a.63.63,0,0,0,.35.13l.76.05a1.38,1.38,0,0,1,.71.25,1,1,0,0,0,.7.27l1,0a1.55,1.55,0,0,1,.9.26,1.29,1.29,0,0,0,.72.21l.19,0c.19,0,.37.11.44.31a2.23,2.23,0,0,0,.63.94l.44.38a.27.27,0,0,0,.45-.09,3.28,3.28,0,0,1,.2-.31c.19-.24.75-.16.83.1a.79.79,0,0,0,.61.64.93.93,0,0,1,.34.18,2.07,2.07,0,0,0,.67.36c.25.07.42.28.65.38s.37.12.54.2.33.18.5.27a1,1,0,0,0,.37.09,1.47,1.47,0,0,1,.9.27,1.31,1.31,0,0,0,.72.23c.38,0,.76,0,1.14.05a.92.92,0,0,1,.53.19,1.13,1.13,0,0,0,.69.29l.77,0a1.11,1.11,0,0,1,.53.17,1.64,1.64,0,0,0,.91.27l1.53,0a1,1,0,0,1,.54.17,1.52,1.52,0,0,0,.89.28,7.34,7.34,0,0,0,1.15,0,1.5,1.5,0,0,0,.36-.11,2.27,2.27,0,0,0,.34-.19l1.06-.4a1.25,1.25,0,0,1,.19,0,2.22,2.22,0,0,0,.92.22l.57,0a1.05,1.05,0,0,1,.54.18,1.41,1.41,0,0,0,.89.28h.38a1.33,1.33,0,0,1,.87.33.85.85,0,0,0,.53.2,4.34,4.34,0,0,1,.95.12V.47ZM77.33,72.84a.33.33,0,0,1-.16-.29.32.32,0,0,1,.17-.28.32.32,0,0,1,.17.29A.31.31,0,0,1,77.33,72.84Zm2.06-2c-.18.08-.31-.07-.3-.31s.18-.35.34-.26a.3.3,0,0,1,.15.3A.32.32,0,0,1,79.39,70.88Zm88.92-22.47c0,.05-.07.07-.11.11a.19.19,0,0,1-.13-.26l.12-.11A.17.17,0,0,1,168.31,48.41Zm1.64-1.7a.32.32,0,0,1-.22.25c-.22,0-.35-.11-.48-.25a.44.44,0,0,1-.1-.5.44.44,0,0,1,.15-.12.52.52,0,0,1,.18,0A.47.47,0,0,1,170,46.71Zm130.21,1.7c0,.05-.08.07-.12.1a.19.19,0,0,1-.11-.27l.13-.1A.18.18,0,0,1,300.16,48.41Zm36.28-7.35A.44.44,0,0,1,336,41a.58.58,0,0,1,0-.14c0-.14.25-.22.45-.15a.22.22,0,0,1,.18.23S336.48,41,336.44,41.06ZM457,36.1s0,0,0,0a.18.18,0,0,1-.27,0c-.12-.09-.12-.19,0-.27a.17.17,0,0,1,.17,0,.19.19,0,0,1,.09.26l0,0Z" transform="translate(-0.44 -0.47)"/><polygon class="cls-2" points="172.53 46.97 172.52 46.97 172.52 46.98 172.53 46.97"/><path class="cls-2" d="M173,47.38h0v.07Z" transform="translate(-0.44 -0.47)"/></svg>