<svg viewBox="0 0 163 163" version="1.1" xmlns="http://www.w3.org/2000/svg"
     xmlns:xlink="http://www.w3.org/1999/xlink" preserveAspectRatio="xMidYMid" fill="#000000">
    <g id="SVGRepo_bgCarrier" stroke-width="0"></g>
    <g id="SVGRepo_tracerCarrier" stroke-linecap="round" stroke-linejoin="round"></g>
    <g id="SVGRepo_iconCarrier">
        <g fill-rule="evenodd">
            <g transform="translate(0.000000, 20.378770)" fill="#8E75FF">
                <path d="M110.293362,0 L36.0244738,0 L36.0244738,37.2379068 L72.5683191,37.2379068 C73.8702232,37.2379068 74.9264037,38.2940873 74.9264037,39.5959914 L74.9264037,75.6354566 L112.651451,75.6354566 L112.651451,2.36239557 C112.652592,1.73624605 112.404657,1.13534991 111.962306,0.692190447 C111.519955,0.24903098 110.919513,0 110.293362,0 Z"></path>
                <path d="M36.0201629,7.1193323e-15 L36.0201629,37.2379068 L1.17913922,37.2379068 C0.700376085,37.2370577 0.269477503,36.9472967 0.0880914206,36.5042234 C-0.0932946619,36.0611501 0.0107117049,35.5524088 0.351438579,35.2160755 L36.0201629,7.1193323e-15 L36.0201629,7.1193323e-15 Z M76.9353022,110.890331 C76.5961072,111.22349 76.0902271,111.32081 75.6516331,111.137278 C75.213039,110.953746 74.927234,110.525142 74.9264037,110.049697 L74.9264037,75.6354566 L112.651447,75.6354566 L76.9353022,110.88602 L76.9353022,110.890331 L76.9353022,110.890331 Z"
                      opacity="0.405"></path>
                <path d="M36.0201629,37.2379068 L73.7495169,37.2379068 C74.396158,37.2379068 74.9264037,37.7638415 74.9264037,38.4147936 L74.9264037,75.6354566 L38.3825584,75.6354566 C37.0802243,75.6354566 36.0244738,74.5797061 36.0244738,73.277372 L36.0244738,37.2379068 L36.0201629,37.2379068 L36.0201629,37.2379068 Z"
                      opacity="0.405"></path>
            </g>

        </g>
    </g>
</svg>
